<svg id="Layer_1" data-name="Layer 1" xmlns="http://www.w3.org/2000/svg" viewBox="0 0 61.46 166.93"><defs><style>.cls-1{fill:#4182f6;}.cls-2{fill:#fbbc04;}.cls-3{fill:#0f9d58;}</style></defs><path class="cls-1" d="M61.46,31.36V163.89a3,3,0,0,1-3,3H3a3,3,0,0,1-3-3V31.36H0a30.73,30.73,0,0,0,61.44,0Z"/><path class="cls-2" d="M61.46,30.73c0,.21,0,.42,0,.63A30.73,30.73,0,0,1,0,31.36c0-.21,0-.42,0-.63H5.21c0,.21,0,.42,0,.63a25.15,25.15,0,0,0,50,3.59,25.83,25.83,0,0,0,.26-3.59c0-.21,0-.42,0-.63Z"/><path class="cls-3" d="M61.46,30.73h-6a25.15,25.15,0,0,0-50-3,23.18,23.18,0,0,0-.25,3H0a29.33,29.33,0,0,1,.25-3.89c0-.25.07-.51.11-.76l.09-.6c.07-.38.14-.75.22-1.13l.12-.54A31.09,31.09,0,0,1,23,1l.53-.13.57-.13L24.72.6l.6-.12L26,.37a30.42,30.42,0,0,1,9.46,0l.68.11.57.11a31,31,0,0,1,24,23.4l.12.58c.05.25.1.5.14.75l.12.68A30.7,30.7,0,0,1,61.46,30.73Z"/><path class="cls-2" d="M51.81,31v-.23A21.47,21.47,0,0,0,9.27,27.25v0s0,0,0,0c-.06.32-.12.65-.16,1a22.56,22.56,0,0,0-.22,2.44c0,.21,0,.42,0,.63a21.48,21.48,0,0,0,43,0C51.82,31.23,51.82,31.09,51.81,31Zm-6.12,2.62a15.51,15.51,0,0,1-30.85-2.22c0-.21,0-.42,0-.63a.49.49,0,0,1,0-.12c0-.48.07-1,.14-1.47a15.51,15.51,0,0,1,30.84,1.59c0,.05,0,.11,0,.16v.47A15.27,15.27,0,0,1,45.69,33.58Z"/><path class="cls-3" d="M40.73,31.36a10.08,10.08,0,0,1-.11,1.33A10.38,10.38,0,0,1,20,31.36a4.42,4.42,0,0,1,0-.63v-.08a7.32,7.32,0,0,1,.09-.93,10.38,10.38,0,0,1,20.65,1v.11C40.73,31,40.73,31.19,40.73,31.36Z"/></svg>