<svg id="Layer_1" data-name="Layer 1" xmlns="http://www.w3.org/2000/svg" viewBox="0 0 147.81 149.33"><defs><style>.cls-1{fill:#0f9d58;}.cls-2{fill:#fbbc04;}.cls-3{fill:#4182f6;}</style></defs><path class="cls-1" d="M88.16,83.33A16,16,0,0,1,72.9,97.06,16.59,16.59,0,0,1,70,96.9,16,16,0,1,1,83.55,69.64h0c.22.21.43.44.64.67A16,16,0,0,1,88,77.74c.06.3.12.6.16.91h0A16,16,0,0,1,88.16,83.33Z"/><path class="cls-2" d="M70.25,42.52H70l-.29,0A38.82,38.82,0,0,0,35.39,69.29a.05.05,0,0,0,0,0L0,.39H47.83A.56.56,0,0,1,48.3.14a.61.61,0,0,1,.48.25.25.25,0,0,1,0,.07Z"/><path class="cls-3" d="M90.74,115.42,73.93,149.33H19l15.76-31.9,6.4-13A38.78,38.78,0,0,0,60.32,118.2l.15,0a39.27,39.27,0,0,0,6.28,1.44h.1a38.51,38.51,0,0,0,21.72-3.19l.46-.21C89.61,116,90.18,115.73,90.74,115.42Z"/><path class="cls-3" d="M147.81.39,110.65,75.3c-.08-.51-.17-1-.26-1.52A38.82,38.82,0,0,0,77.84,42.87c-1-.14-2-.25-3-.31l-.29,0h0c-.93-.06-1.85-.08-2.76-.07L92.62.39,92.81,0Z"/><path class="cls-2" d="M39.42,77.2h0l1,2Z"/><path class="cls-2" d="M77,48.49a34,34,0,0,0-4.12-.34H72.6a32,32,0,0,0-3.67.16A33.17,33.17,0,0,0,39.5,76.54c0,.22,0,.44-.08.66l1,2-1-2A33.18,33.18,0,0,0,56.29,110.3l.14.07a33.07,33.07,0,0,0,11.13,3.7c.68.1,1.36.18,2,.23a33,33,0,0,0,24.05-7.69l.55-.47c.77-.67,1.5-1.38,2.2-2.12A32.94,32.94,0,0,0,105,86.73c0-.24.08-.48.11-.71.11-.79.2-1.57.25-2.34A33.13,33.13,0,0,0,77,48.49ZM96,84.7a24.33,24.33,0,0,1-1.55,5.7c-.05.1-.09.21-.14.32h0a24,24,0,0,1-20,14.41,23.27,23.27,0,0,1-5.39-.17A23.93,23.93,0,1,1,75.72,57.6c.63.09,1.26.21,1.88.35l.34.07A23.93,23.93,0,0,1,96,84.7Z"/></svg>