<svg id="Layer_1" data-name="Layer 1" xmlns="http://www.w3.org/2000/svg" xmlns:xlink="http://www.w3.org/1999/xlink" viewBox="0 0 160 156.7"><defs><style>.cls-1,.cls-3,.cls-4{fill:none;}.cls-2{clip-path:url(#clip-path);}.cls-3{stroke:#fff;stroke-miterlimit:10;stroke-width:0.54px;}.cls-4{stroke:#e0e0e0;stroke-width:0.52px;}.cls-5{fill:#4182f6;}.cls-6{fill:#fbbc04;}.cls-7{fill:#0f9d58;}</style><clipPath id="clip-path"><rect class="cls-1" x="544.57" y="-796.82" width="577.75" height="366.87"/></clipPath></defs><g class="cls-2"><line class="cls-3" x1="39.48" y1="-446.8" x2="1543.17" y2="427.79"/><line class="cls-3" x1="54.87" y1="-472.46" x2="1558.56" y2="402.12"/><line class="cls-3" x1="70.26" y1="-498.13" x2="1573.95" y2="376.46"/><line class="cls-3" x1="85.65" y1="-523.79" x2="1589.34" y2="350.79"/><line class="cls-3" x1="101.04" y1="-549.46" x2="1604.73" y2="325.13"/><line class="cls-3" x1="116.43" y1="-575.12" x2="1620.12" y2="299.46"/><line class="cls-3" x1="131.82" y1="-600.79" x2="1635.51" y2="273.8"/><line class="cls-3" x1="147.21" y1="-626.45" x2="1650.9" y2="248.13"/><line class="cls-4" x1="39.48" y1="-446.8" x2="1543.17" y2="427.79"/><line class="cls-4" x1="54.87" y1="-472.46" x2="1558.56" y2="402.12"/><line class="cls-4" x1="70.26" y1="-498.13" x2="1573.95" y2="376.46"/><line class="cls-4" x1="85.65" y1="-523.79" x2="1589.34" y2="350.79"/><line class="cls-4" x1="101.04" y1="-549.46" x2="1604.73" y2="325.13"/><line class="cls-4" x1="116.43" y1="-575.12" x2="1620.12" y2="299.46"/><line class="cls-4" x1="131.82" y1="-600.79" x2="1635.51" y2="273.8"/><line class="cls-4" x1="147.21" y1="-626.45" x2="1650.9" y2="248.13"/></g><path class="cls-5" d="M56.85,156.7l17.58-34.25c.65.09,1.3.16,2,.22,1.31.12,2.63.18,4,.18,1.12,0,2.22,0,3.32-.13.88-.06,1.74-.15,2.6-.27l17.59,34.25Z"/><path class="cls-5" d="M56.42,0h46.52L85.55,33.89c-.91-.11-1.82-.18-2.74-.23s-1.63-.07-2.45-.07c-1,0-2.07,0-3.09.1s-2.25.2-3.36.36l-2.55-5-.48-.92Z"/><path class="cls-6" d="M85.82,33.36l17-33.13A.41.41,0,0,1,103.2,0h55.74a1.05,1.05,0,0,1,.89,1.62L122.35,61.23a.42.42,0,0,1-.74-.06A44.66,44.66,0,0,0,86.14,34,.41.41,0,0,1,85.82,33.36Z"/><path class="cls-6" d="M56.85,156.7H1.6a.92.92,0,0,1-.78-1.42L38.89,94.74a44.66,44.66,0,0,0,35.54,27.71Z"/><path class="cls-6" d="M86.48,122.43a44.67,44.67,0,0,0,35-26.85.14.14,0,0,1,.25,0l37.67,59.92a.8.8,0,0,1-.68,1.23H104a.13.13,0,0,1-.12-.08l-17.46-34A.14.14,0,0,1,86.48,122.43Z"/><path class="cls-6" d="M.93,0H56.42L70.88,28.17l.48.92,2.55,5A44.68,44.68,0,0,0,38.57,62.52L.14,1.42A.93.93,0,0,1,.93,0Z"/><circle class="cls-7" cx="80.66" cy="77.85" r="19.32"/><path class="cls-6" d="M80.36,116.37A38.15,38.15,0,1,0,42.21,78.22,38.15,38.15,0,0,0,80.36,116.37ZM55.26,67.62a27.36,27.36,0,0,1,14.5-14.5,27.18,27.18,0,1,1-14.5,14.5Z"/><rect class="cls-1" x="70.88" y="26.53" width="11.5" height="2.56" transform="translate(153.27 55.62) rotate(-180)"/></svg>