<svg id="Layer_1" data-name="Layer 1" xmlns="http://www.w3.org/2000/svg" viewBox="0 0 150.76 155.16"><defs><style>.cls-1{fill:#0f9d58;}.cls-2{fill:#4182f6;}.cls-3{fill:#fbbc04;}</style></defs><path class="cls-1" d="M93.84,0,62,70.57H16.29A16.09,16.09,0,0,1,0,54.7V12.42A12.59,12.59,0,0,1,12.76,0Z"/><path class="cls-1" d="M150.76,15.87V58.15A12.58,12.58,0,0,1,138,70.57H74.36l13.12-29.1L106.18,0h28.3A16.12,16.12,0,0,1,150.76,15.87Z"/><path class="cls-2" d="M55.7,84.58,23.88,155.16H14.16A14,14,0,0,1,0,141.37V94.93A10.48,10.48,0,0,1,10.62,84.58Z"/><path class="cls-2" d="M150.76,98.37v46.44a10.49,10.49,0,0,1-10.61,10.35H36.23l4-9L68,84.58h68.57A14,14,0,0,1,150.76,98.37Z"/><path class="cls-3" d="M65.28.87A47.27,47.27,0,0,0,51.74,93.43l17-37.77L90.25,8A47,47,0,0,0,65.28.87Z"/><path class="cls-3" d="M74.36,70.57l13.12-29.1a57.93,57.93,0,0,1,39.73,43.11,58.48,58.48,0,0,1,1.3,12.28c0,.4,0,.81,0,1.21a57.91,57.91,0,0,1-88.23,48.12L68,84.58Z"/></svg>