<svg id="Layer_1" data-name="Layer 1" xmlns="http://www.w3.org/2000/svg" viewBox="0 0 203.12 149.2"><defs><style>.cls-1{fill:#4182f6;}.cls-2{fill:#0f9d58;}.cls-3{fill:#fbbc04;}</style></defs><path class="cls-1" d="M100.56,105.36,79.5,146.69a4.13,4.13,0,0,1-7.36,0L.46,6A4.12,4.12,0,0,1,4.13,0h42a4.12,4.12,0,0,1,3.67,2.25L74,49.76,100.56,102A3.79,3.79,0,0,1,100.56,105.36Z"/><path class="cls-2" d="M180.22,49.49a.61.61,0,0,1,0,.56l-27.31,53.61L130.85,147a4.13,4.13,0,0,1-7.36,0l-22.06-43.3L74.12,50a.61.61,0,0,1,0-.56L99.15.34A.63.63,0,0,1,99.71,0h0a.62.62,0,0,1,.55.34l26.35,51.72a.63.63,0,0,0,1.11,0L154.07.34a.63.63,0,0,1,.56-.34h0a.62.62,0,0,1,.55.34Z"/><polygon class="cls-3" points="154.25 0 127.16 53.14 100.09 0 154.25 0"/><path class="cls-2" d="M202.66,6l-22.3,43.77L155,0h44A4.12,4.12,0,0,1,202.66,6Z"/></svg>