<svg id="Layer_1" data-name="Layer 1" xmlns="http://www.w3.org/2000/svg" viewBox="0 0 232.43 170.74"><defs><style>.cls-1{fill:#fbbc04;}.cls-2{fill:#0f9d58;}.cls-3{fill:#4182f6;}</style></defs><polygon class="cls-1" points="55.93 170.74 86.92 109.93 117.9 170.74 55.93 170.74"/><path class="cls-2" d="M147.62,114.12,119,170.35l0,0Z"/><path class="cls-2" d="M118,74.61l19.29,37.86a2.88,2.88,0,0,1,0,2.65l-17.33,34a1.83,1.83,0,0,1-3.25,0L97.42,111.28a2.94,2.94,0,0,1,0-2.65l17.34-34A1.81,1.81,0,0,1,118,74.61Zm-1.62-22.46-.13.27L86.39,111a.7.7,0,0,1,1.16.15l28.83,56.59,1.32,2.59a.71.71,0,0,0,1.25,0l28.67-56.27v0s0,0,0,0a.73.73,0,0,0,0-.58L116.38,52.15Z"/><path class="cls-1" d="M231.91,163.87l-25.44-49.94a.74.74,0,0,0-.06-.46L175.15,52.12,149.91,2.58a4.72,4.72,0,0,0-8.42,0L116.38,51.85l.62,1.22a4.5,4.5,0,0,0,.36,1l30.33,59.53a.74.74,0,0,1,0,.14h0l28.84,56.6a.41.41,0,0,0,0,.09.74.74,0,0,0,.58.3.73.73,0,0,0,.64-.39v0a4.8,4.8,0,0,0,1.93.41h48A4.73,4.73,0,0,0,231.91,163.87Z"/><polygon class="cls-3" points="176.8 170.74 118.77 170.74 118.95 170.39 147.62 114.12 147.63 114.1 147.65 114.05 147.78 113.79 176.8 170.74"/><path class="cls-3" d="M116.37,52.13,91.12,2.58a4.72,4.72,0,0,0-8.42,0L57.46,52.12,26.2,113.47a.72.72,0,0,0,0,.64l28.66,56.24a.71.71,0,0,0,1.27,0l30.16-59.18a.4.4,0,0,1,.1-.15l29.86-58.6.13-.27Z"/><path class="cls-3" d="M.52,163.87a4.73,4.73,0,0,0,4.21,6.87H55.06L26,113.79Z"/></svg>