<svg id="Layer_1" data-name="Layer 1" xmlns="http://www.w3.org/2000/svg" viewBox="0 0 167.45 167.14"><defs><style>.cls-1{fill:#4182f6;}.cls-2{fill:#0f9d58;}.cls-3{fill:#fbbc04;}.cls-4{fill:#e0e0e0;}</style></defs><path class="cls-1" d="M7.38,0H161.32a6.12,6.12,0,0,1,6.12,6.12V27.72a19.67,19.67,0,0,1-19.67,19.67H7.38a6.12,6.12,0,0,1-6.12-6.12V6.12A6.12,6.12,0,0,1,7.38,0Z"/><path class="cls-2" d="M143.75,60.56H23.7a23.7,23.7,0,1,0,0,47.39H143.75a23.7,23.7,0,0,0,0-47.39ZM10.45,84.47A19.83,19.83,0,0,1,29.61,64.65v39.64A19.84,19.84,0,0,1,10.45,84.47ZM110.5,104.3a19.83,19.83,0,0,1,0-39.66Zm28.58,0V64.65a19.83,19.83,0,0,1,0,39.64Z"/><path class="cls-3" d="M60.48,64.64a19.83,19.83,0,1,1,0,39.66Z"/><path class="cls-3" d="M49.44,84.47a19.84,19.84,0,0,1-19.16,19.82h-.67V64.64h.67A19.83,19.83,0,0,1,49.44,84.47Z"/><path class="cls-4" d="M139.08,64.65v39.64h-.67V64.64h.67Z"/><path class="cls-3" d="M139.08,64.64V104.3h-.67a19.83,19.83,0,0,1,0-39.64h.67Z"/><path class="cls-3" d="M134.65,3.87a19.83,19.83,0,1,1,0,39.65Z"/><path class="cls-3" d="M102.43,3.87a19.83,19.83,0,1,1,0,39.65Z"/><path class="cls-3" d="M7.37,119.75H161a6.12,6.12,0,0,1,6.12,6.12v21.62a19.66,19.66,0,0,1-19.66,19.66H7.37A6.12,6.12,0,0,1,1.25,161V125.87a6.12,6.12,0,0,1,6.12-6.12Z" transform="translate(168.4 286.9) rotate(-180)"/><path class="cls-2" d="M32.34,163.28a19.83,19.83,0,0,1,0-39.66Z"/><path class="cls-2" d="M62.68,163.28a19.83,19.83,0,0,1,0-39.66Z"/></svg>