<svg id="Layer_1" data-name="Layer 1" xmlns="http://www.w3.org/2000/svg" viewBox="0 0 171.47 171.58"><defs><style>.cls-1{fill:#4182f6;}.cls-2{fill:#fbbc04;}.cls-3{fill:#0f9d58;}</style></defs><path class="cls-1" d="M10.38,171.58h73.2a1.25,1.25,0,0,0,1.11-1.81L2.09,4.57A.76.76,0,0,0,2,4.38,10.44,10.44,0,0,0,0,10.5V161.22a10.28,10.28,0,0,0,10.38,10.36Z"/><path class="cls-2" d="M171.47,161.08V10.49A10.5,10.5,0,0,0,161,0H85.86l83.62,167.23A10.46,10.46,0,0,0,171.47,161.08Z"/><path class="cls-2" d="M116.71,126a13,13,0,1,1-13,13,13,13,0,0,1,13-13m0-3.08a16.06,16.06,0,1,0,16,16.06,16.06,16.06,0,0,0-16-16.06Z"/><path class="cls-1" d="M84.59,73.58a13,13,0,1,1-13,13,13,13,0,0,1,13-13m0-3.08a16.06,16.06,0,1,0,16.06,16.06A16.06,16.06,0,0,0,84.59,70.5Z"/><path class="cls-3" d="M57.67,31V47.08a16.06,16.06,0,1,1,13.91-8Z"/></svg>