<svg id="Layer_1" data-name="Layer 1" xmlns="http://www.w3.org/2000/svg" xmlns:xlink="http://www.w3.org/1999/xlink" viewBox="0 0 155.35 161.17"><defs><style>.cls-1{fill:none;}.cls-2{fill:#fbbc04;}.cls-3{fill:#4182f6;}.cls-4{clip-path:url(#clip-path);}.cls-5{fill:#0f9d58;}</style><clipPath id="clip-path"><path id="SVGID" class="cls-1" d="M3,0H79.16a1.42,1.42,0,0,1,1.42,1.42V159.75a1.42,1.42,0,0,1-1.42,1.42H1.42A1.42,1.42,0,0,1,0,159.75V3A3,3,0,0,1,3,0Z"/></clipPath></defs><path class="cls-2" d="M152.34,159.59H79.81V103.92a51.07,51.07,0,0,0,19.83-4.28l54.82,54.82A3,3,0,0,1,152.34,159.59Z"/><path d="M99.15,99.64a51.27,51.27,0,0,1-19.83,4.28V79.81Z"/><path class="cls-3" d="M130.51,52.17a51.89,51.89,0,0,1-51.19,51.75V.44A51.77,51.77,0,0,1,130.51,52.17Z"/><g class="cls-4"><path class="cls-2" d="M79.81,0V.44c-.27,0-.57,0-.84,0A51.79,51.79,0,0,0,31.5,31.5L0,0Z"/><path class="cls-5" d="M79.81,103.92v55.67h-65A14.76,14.76,0,0,1,0,144.82V0L31.5,31.5A51.83,51.83,0,0,0,79,104,7.86,7.86,0,0,0,79.81,103.92Z"/></g></svg>