<svg id="Layer_1" data-name="Layer 1" xmlns="http://www.w3.org/2000/svg" viewBox="0 0 175.83 148.41"><defs><style>.cls-1{fill:#4182f6;}.cls-2{fill:#0f9d58;}.cls-3{fill:#fbbc04;}</style></defs><path class="cls-1" d="M175.32,5.74,147,52.54v0L119.55,7.28l-2.7-4.46L115.5.59l-.2-.33h56.42C174.84.26,176.81,3.27,175.32,5.74Z"/><path class="cls-1" d="M7,.26H54.17a.22.22,0,0,0-.05.08L24.83,48.68a.53.53,0,0,0-.06.41L.87,9.64C-1.69,5.41,1.69.26,7,.26Z"/><path class="cls-1" d="M60.14,107.48l23,37.64a5,5,0,0,1-.84-1Z"/><path class="cls-1" d="M115.8,103.94c-.06.13-.13.25-.2.38L91.51,144.08c-.08.14-.18.27-.27.4Z"/><path class="cls-2" d="M114.23.56,84.92,48.93,114.2.59Z"/><path class="cls-3" d="M147,52.51,117,102l-.14.22-.8-1.33h0l-.43-.71a4,4,0,0,1,.19,3.78L91.24,144.48a5.6,5.6,0,0,1-8.08.64l-23-37.64L24.77,49.09a.53.53,0,0,1,.06-.41L54.12.34a.22.22,0,0,1,.05-.08h.71a.36.36,0,0,1,.31.16L84.75,49.21l.16.26a.54.54,0,0,1,0-.48h0l0-.05h0L114.23.56a.74.74,0,0,1,.62-.3.78.78,0,0,1,.65.33l1.35,2.23,2.7,4.46Z"/><path class="cls-3" d="M147.51,51.59l-.56.92L119.55,7.28l26.77,44.19A.81.81,0,0,0,147.51,51.59Z"/><path class="cls-3" d="M54.88.26h-.71a.81.81,0,0,1,1.19,0,.22.22,0,0,1,0,.08L84.89,49h0a.54.54,0,0,0,0,.48l-.16-.26L55.19.42A.36.36,0,0,0,54.88.26Z"/><path class="cls-3" d="M24.77,49.09l35.37,58.39L56.78,102,24.83,49.23Z"/><path class="cls-3" d="M91.24,144.48l0,.08c-.32.53-.91,1.47-1.56,2.47a3.22,3.22,0,0,1-5.32,0l-1.15-1.87A5.6,5.6,0,0,0,91.24,144.48Z"/><path class="cls-3" d="M116,103.53l-.24.41a4,4,0,0,0-.19-3.78l.43.71h0A2.52,2.52,0,0,1,116,103.53Z"/><path class="cls-2" d="M55.09.26l.1.16L84.75,49.21l.14-.22h0l0-.05h0L114.23.56l.18-.3ZM84.75,34.91,68.24,7.66h33Z"/></svg>