<svg id="Layer_1" data-name="Layer 1" xmlns="http://www.w3.org/2000/svg" viewBox="0 0 144.51 166.94"><defs><style>.cls-1{fill:#4182f6;}.cls-2{fill:#fbbc04;}.cls-3{fill:#fff;}.cls-4{fill:#0f9d58;}</style></defs><polygon class="cls-1" points="85.3 81.51 85.3 85.17 83.47 83.47 85.3 81.51"/><path class="cls-1" d="M81.5,166.91H1.2a1.2,1.2,0,0,1-1.2-1.2V83.47C0,128.6,36.61,165.86,81.5,166.91Z"/><path class="cls-1" d="M83.47,0C37.68,0,0,37.68,0,83.47V1.2A1.2,1.2,0,0,1,1.2,0Z"/><path class="cls-1" d="M84.18,0h0Z"/><path class="cls-2" d="M144.51,140.39a83.45,83.45,0,0,1-61,26.55c-.66,0-1.31,0-2,0C36.61,165.86,0,128.6,0,83.47,0,37.68,37.68,0,83.47,0h.75A83.45,83.45,0,0,1,140,22a.6.6,0,0,1,0,.86L118.07,46.36A50.5,50.5,0,0,0,90.72,33.25a53,53,0,0,0-5.42-.49,50.74,50.74,0,1,0,35.28,85.31Z"/><path class="cls-3" d="M83.47,83.47l1.83,1.7V81.51Zm0,0,1.83,1.7V81.51Zm0,0,1.83,1.7V81.51Z"/><path class="cls-2" d="M83.47,83.47l1.83,1.7V81.51Zm0,0,1.83,1.7V81.51Zm0,0,1.83,1.7V81.51Z"/><path class="cls-2" d="M113,51.79A43.09,43.09,0,0,0,89.66,40.6c-1.46-.21-2.91-.34-4.36-.41A43.32,43.32,0,1,0,113,51.79Zm1.42,36.15A31.28,31.28,0,1,1,85.3,52.24q1.31.07,2.64.27a31.27,31.27,0,0,1,26.49,35.43Z"/><polygon class="cls-3" points="85.3 81.51 85.3 85.17 83.47 83.47 85.3 81.51"/><path class="cls-4" d="M97.91,68a20.94,20.94,0,0,0-11.45-5.55c-.39-.06-.77-.1-1.16-.14a20.95,20.95,0,0,0-4.83,41.6,20.65,20.65,0,0,0,4.83.14A21,21,0,0,0,97.91,68ZM83.47,83.47l1.83-2v3.66Z"/><polygon class="cls-4" points="85.3 81.51 85.3 85.17 83.47 83.47 85.3 81.51"/></svg>