<svg id="Layer_1" data-name="Layer 1" xmlns="http://www.w3.org/2000/svg" viewBox="0 0 132.28 170.09"><defs><style>.cls-1{fill:#fbbc04;}.cls-2{fill:#4182f6;}.cls-3{fill:#fff;}.cls-4{fill:#0f9d58;}</style></defs><path class="cls-1" d="M51.15,102.72a7.31,7.31,0,0,1-1.23-.07,7,7,0,0,1,1.23-13.94,6.68,6.68,0,0,1,.77.07,7,7,0,0,1-.77,13.94Z"/><path class="cls-1" d="M107.9,80.13h0A20.6,20.6,0,0,0,93.5,74.29H33.4a3.27,3.27,0,0,0-3.27,3.26v36.19A3.27,3.27,0,0,0,33.4,117H93.5a20.68,20.68,0,0,0,20.67-20.67V95A20.64,20.64,0,0,0,107.9,80.13Zm-4.07,17.18A10.47,10.47,0,1,1,95,85.45,10.48,10.48,0,0,1,103.83,97.31Zm-54.41,8.87a10.47,10.47,0,0,1,1.73-20.83,10.69,10.69,0,0,1,1.26.1,10.47,10.47,0,0,1-1.26,20.83A10.1,10.1,0,0,1,49.42,106.18Zm45.05-17.4a7,7,0,1,0,5.93,7.94A7,7,0,0,0,94.47,88.78Z"/><path class="cls-1" d="M51.15,35.15a8.7,8.7,0,0,1,0-17A8.86,8.86,0,0,1,54.24,18a8.7,8.7,0,1,1-2.49,17.23C51.55,35.23,51.35,35.2,51.15,35.15Z"/><path class="cls-1" d="M107.06,18a8.7,8.7,0,1,0,7.37,9.86A8.71,8.71,0,0,0,107.06,18Zm0,0a8.7,8.7,0,1,0,7.37,9.86A8.71,8.71,0,0,0,107.06,18ZM111.29.88h0a25.89,25.89,0,0,0-6.52-.83H26.12v53h78.63a25.7,25.7,0,0,0,25.7-25.7V25.75A25.72,25.72,0,0,0,111.29.88Zm7.39,27.75a13,13,0,1,1-11-14.72A13,13,0,0,1,118.68,28.63ZM40.13,24.92a13,13,0,1,1,11,14.72h0A13,13,0,0,1,40.13,24.92ZM107.06,18a8.7,8.7,0,1,0,7.37,9.86A8.71,8.71,0,0,0,107.06,18Zm0,0a8.7,8.7,0,1,0,7.37,9.86A8.71,8.71,0,0,0,107.06,18Zm0,0a8.7,8.7,0,1,0,7.37,9.86A8.71,8.71,0,0,0,107.06,18Z"/><path class="cls-2" d="M51.15,18.14v17a8.7,8.7,0,0,1,0-17Z"/><path class="cls-2" d="M51.15,88.71v14a7.31,7.31,0,0,1-1.23-.07,7,7,0,0,1,1.23-13.94Z"/><path class="cls-2" d="M51.15,0V13.91a13,13,0,0,0,0,25.73h0V85.35a10.47,10.47,0,0,0-1.73,20.83,10.1,10.1,0,0,0,1.73.1v56.47a7.34,7.34,0,0,1-7.34,7.34H8.67A8.67,8.67,0,0,1,0,161.42V8.67A8.67,8.67,0,0,1,8.67,0Z"/><path class="cls-2" d="M61.61,27.89a8.7,8.7,0,0,1-9.86,7.37c-.2,0-.4-.06-.6-.11a8.7,8.7,0,0,1,0-17A8.86,8.86,0,0,1,54.24,18,8.71,8.71,0,0,1,61.61,27.89Z"/><path class="cls-2" d="M79.41,25.14h0A26.47,26.47,0,1,0,49.21,53l1,.13.94.08a25.15,25.15,0,0,0,4.68-.08A26.46,26.46,0,0,0,79.18,30.56c.11-.72.18-1.44.22-2.15h0A27.29,27.29,0,0,0,79.41,25.14ZM51.15,39.64h0a13,13,0,1,1,14.73-11A13,13,0,0,1,51.13,39.64Z"/><path class="cls-1" d="M61.61,27.89a8.7,8.7,0,0,1-9.86,7.37c-.2,0-.4-.06-.6-.11a8.7,8.7,0,0,1,0-17A8.86,8.86,0,0,1,54.24,18,8.71,8.71,0,0,1,61.61,27.89Z"/><path class="cls-1" d="M55.57,9a18.23,18.23,0,0,0-4.42-.09,18,18,0,0,0-.73,35.72l.73.08A18,18,0,0,0,55.57,9ZM65.86,28.63a13,13,0,0,1-14.71,11h0a13,13,0,1,1,14.73-11Z"/><path class="cls-3" d="M61.61,27.89a8.7,8.7,0,0,1-9.86,7.37c-.2,0-.4-.06-.6-.11a8.7,8.7,0,0,1,0-17A8.86,8.86,0,0,1,54.24,18,8.71,8.71,0,0,1,61.61,27.89Z"/><path class="cls-2" d="M61.61,27.89a8.7,8.7,0,0,1-9.86,7.37c-.2,0-.4-.06-.6-.11a8.7,8.7,0,0,1,0-17A8.86,8.86,0,0,1,54.24,18,8.71,8.71,0,0,1,61.61,27.89Z"/><path class="cls-2" d="M97.21,25.4a8.7,8.7,0,1,1,7.36,9.86A8.71,8.71,0,0,1,97.21,25.4Z"/><path class="cls-2" d="M111.29.88h0c-.55-.11-1.11-.21-1.67-.29a26.46,26.46,0,0,0-30,22.4c-.11.72-.18,1.43-.22,2.14h0a27.29,27.29,0,0,0,0,3.26h0A26.47,26.47,0,0,0,102,53l1,.13A26.46,26.46,0,0,0,111.29.88ZM93,24.92a13,13,0,1,1,11,14.72A13,13,0,0,1,93,24.92Z"/><path class="cls-1" d="M114.43,27.89A8.7,8.7,0,1,1,107.06,18,8.7,8.7,0,0,1,114.43,27.89Z"/><path class="cls-1" d="M108.39,9a18,18,0,1,0,15.24,20.39A18,18,0,0,0,108.39,9Zm10.29,19.67a13,13,0,1,1-11-14.72A13,13,0,0,1,118.68,28.63Z"/><path class="cls-3" d="M114.43,27.89A8.7,8.7,0,1,1,107.06,18,8.7,8.7,0,0,1,114.43,27.89Z"/><path class="cls-4" d="M114.43,27.89A8.7,8.7,0,1,1,107.06,18,8.7,8.7,0,0,1,114.43,27.89Z"/><path class="cls-2" d="M57.86,96.72a7,7,0,0,1-6.71,6,7.31,7.31,0,0,1-1.23-.07,7,7,0,0,1,1.23-13.94,6.68,6.68,0,0,1,.77.07A7,7,0,0,1,57.86,96.72Z"/><path class="cls-2" d="M72.19,94.5v0A21.3,21.3,0,0,0,54,74.72a20.85,20.85,0,0,0-2.82-.22,21.33,21.33,0,0,0-21,16.59c-.12.55-.23,1.11-.31,1.68a21.29,21.29,0,0,0,18,24.14l.77.1a21.29,21.29,0,0,0,2.51.12,17.87,17.87,0,0,0,2.08-.12A21.32,21.32,0,0,0,72,98.86a16.34,16.34,0,0,0,.18-1.7h0A19.53,19.53,0,0,0,72.19,94.5Zm-21,11.78a10.1,10.1,0,0,1-1.73-.1,10.47,10.47,0,0,1,1.73-20.83,10.69,10.69,0,0,1,1.26.1,10.47,10.47,0,0,1-1.26,20.83Z"/><path class="cls-1" d="M57.86,96.72a7,7,0,0,1-6.71,6,7.31,7.31,0,0,1-1.23-.07,7,7,0,0,1,1.23-13.94,6.68,6.68,0,0,1,.77.07A7,7,0,0,1,57.86,96.72Z"/><path class="cls-1" d="M53,81.47a14.49,14.49,0,1,0-4.14,28.69,14.89,14.89,0,0,0,2.3.15A14.5,14.5,0,0,0,53,81.47Zm8.29,15.84a10.48,10.48,0,0,1-10.13,9,10.1,10.1,0,0,1-1.73-.1,10.47,10.47,0,0,1,1.73-20.83,10.69,10.69,0,0,1,1.26.1A10.47,10.47,0,0,1,61.28,97.31Z"/><path class="cls-3" d="M57.86,96.72a7,7,0,0,1-6.71,6,7.31,7.31,0,0,1-1.23-.07,7,7,0,0,1,1.23-13.94,6.68,6.68,0,0,1,.77.07A7,7,0,0,1,57.86,96.72Z"/><path class="cls-2" d="M57.86,96.72a7,7,0,0,1-6.71,6,7.31,7.31,0,0,1-1.23-.07,7,7,0,0,1,1.23-13.94,6.68,6.68,0,0,1,.77.07A7,7,0,0,1,57.86,96.72Z"/><path class="cls-2" d="M86.53,94.71a7,7,0,1,1,5.93,7.94A7,7,0,0,1,86.53,94.71Z"/><path class="cls-2" d="M107.9,80.13h0A21.32,21.32,0,0,0,72.37,92.77q-.12.86-.18,1.71v0a23.43,23.43,0,0,0,0,2.65h0a21.31,21.31,0,0,0,18.23,19.75l.77.1A21.32,21.32,0,0,0,107.9,80.13ZM83.1,94.32A10.47,10.47,0,1,1,92,106.18,10.48,10.48,0,0,1,83.1,94.32Z"/><path class="cls-1" d="M100.4,96.72a7,7,0,1,1-5.93-7.94A7,7,0,0,1,100.4,96.72Z"/><path class="cls-1" d="M95.54,81.47a14.49,14.49,0,1,0,12.27,16.42A14.49,14.49,0,0,0,95.54,81.47Zm8.29,15.84A10.47,10.47,0,1,1,95,85.45,10.48,10.48,0,0,1,103.83,97.31Z"/><path class="cls-3" d="M100.4,96.72a7,7,0,1,1-5.93-7.94A7,7,0,0,1,100.4,96.72Z"/><path class="cls-4" d="M100.4,96.72a7,7,0,1,1-5.93-7.94A7,7,0,0,1,100.4,96.72Z"/></svg>