<svg id="Layer_1" data-name="Layer 1" xmlns="http://www.w3.org/2000/svg" xmlns:xlink="http://www.w3.org/1999/xlink" viewBox="0 0 118.02 175.08"><defs><style>.cls-1,.cls-3,.cls-4{fill:none;}.cls-2{clip-path:url(#clip-path);}.cls-3{stroke:#fff;stroke-miterlimit:10;stroke-width:0.54px;}.cls-4{stroke:#e0e0e0;stroke-width:0.52px;}.cls-5{fill:#4182f6;}.cls-6{fill:#fbbc04;}.cls-7{fill:#fff;}.cls-8{fill:#0f9d58;}</style><clipPath id="clip-path"><rect class="cls-1" x="520.74" y="-242.58" width="577.75" height="366.87"/></clipPath></defs><g class="cls-2"><line class="cls-3" x1="1624.53" y1="-790.61" x2="115.27" y2="74.33"/><line class="cls-3" x1="1609.3" y1="-816.38" x2="100.04" y2="48.56"/><line class="cls-3" x1="1594.08" y1="-842.14" x2="84.82" y2="22.8"/><line class="cls-4" x1="1624.53" y1="-790.61" x2="115.27" y2="74.33"/><line class="cls-4" x1="1609.3" y1="-816.38" x2="100.04" y2="48.56"/><line class="cls-4" x1="1594.08" y1="-842.14" x2="84.82" y2="22.8"/><line class="cls-3" x1="15.65" y1="107.44" x2="1519.34" y2="982.02"/><line class="cls-3" x1="31.04" y1="81.77" x2="1534.73" y2="956.36"/><line class="cls-3" x1="46.43" y1="56.11" x2="1550.12" y2="930.69"/><line class="cls-3" x1="61.82" y1="30.44" x2="1565.51" y2="905.03"/><line class="cls-3" x1="77.21" y1="4.78" x2="1580.9" y2="879.36"/><line class="cls-3" x1="92.6" y1="-20.89" x2="1596.29" y2="853.7"/><line class="cls-3" x1="107.99" y1="-46.55" x2="1611.68" y2="828.03"/><line class="cls-4" x1="15.65" y1="107.44" x2="1519.34" y2="982.02"/><line class="cls-4" x1="31.04" y1="81.77" x2="1534.73" y2="956.36"/><line class="cls-4" x1="46.43" y1="56.11" x2="1550.12" y2="930.69"/><line class="cls-4" x1="61.82" y1="30.44" x2="1565.51" y2="905.03"/><line class="cls-4" x1="77.21" y1="4.78" x2="1580.9" y2="879.36"/><line class="cls-4" x1="92.6" y1="-20.89" x2="1596.29" y2="853.7"/><line class="cls-4" x1="107.99" y1="-46.55" x2="1611.68" y2="828.03"/></g><path class="cls-5" d="M60.56,118v0H59Z"/><path class="cls-6" d="M59.3,33.66h-.17l-.12,0v0h.13Z"/><path class="cls-6" d="M61.59,33.66h-1v51H59.9l-.89,0h0v-.45a.71.71,0,0,0,.29,0h1.26V33.66h0Z"/><path class="cls-6" d="M62,33.68l-.38,0h.22Z"/><path class="cls-6" d="M118,59a59,59,0,0,1-57.46,59V97.94a38.8,38.8,0,0,0,0-77.59V0A59,59,0,0,1,118,59Z"/><path class="cls-7" d="M62,33.68l-.38,0h.22Z"/><path class="cls-5" d="M21.76,59.14A38.78,38.78,0,0,0,59,97.9c.51,0,1,0,1.55,0h0V118L59,118h1.55v55.79a1.27,1.27,0,0,1-1.27,1.27H4.41A4.41,4.41,0,0,1,0,170.67V3.66A3.66,3.66,0,0,1,3.67,0H59l1.55,0V20.35h0c-.52,0-1,0-1.55,0A38.78,38.78,0,0,0,21.76,59.14Z"/><path class="cls-5" d="M60.56,0V0L59,0Z"/><path class="cls-5" d="M60.56,118v0H59Z"/><path class="cls-7" d="M60.56,33.64v0h0Z"/><path class="cls-8" d="M60.56,33.66V84.2H59.3a.71.71,0,0,1-.29,0v.45A25.65,25.65,0,0,1,35.32,62.81c0-.19-.06-.38-.08-.57a24.35,24.35,0,0,1-.18-2.44c0-.22,0-.44,0-.66s0-.43,0-.65a24.35,24.35,0,0,1,.18-2.44c0-.19,0-.38.08-.57A25.65,25.65,0,0,1,59,33.69v0l.12,0h1.43Z"/><path class="cls-8" d="M59.13,33.68l-.12,0v0Z"/><path class="cls-8" d="M60.56,33.64v0h0Z"/><path class="cls-8" d="M59.3,84.2h1.26v.45H59.9l-.89,0v-.45A.71.71,0,0,0,59.3,84.2Z"/><path class="cls-6" d="M86.06,59.14a25.5,25.5,0,0,1-25.5,25.51v-51h1l.38,0A25.5,25.5,0,0,1,86.06,59.14Z"/><path class="cls-1" d="M59.3,33.66h-.16Z"/><path class="cls-1" d="M62,33.68l-.38,0h.22Z"/></svg>