<svg id="Layer_1" data-name="Layer 1" xmlns="http://www.w3.org/2000/svg" viewBox="0 0 165.08 165.08"><defs><style>.cls-1{fill:#4182f6;}.cls-2{fill:#0f9d58;}.cls-3{fill:#fbbc04;}</style></defs><path class="cls-1" d="M24.18,140.91a82.55,82.55,0,0,0,56.48,24.15H1.49A1.49,1.49,0,0,1,0,163.57v-81A82.57,82.57,0,0,0,24.18,140.91Z"/><path class="cls-1" d="M24.18,24.18A82.53,82.53,0,0,0,0,82.54V1.49A1.49,1.49,0,0,1,1.49,0H81.24A82.55,82.55,0,0,0,24.18,24.18Z"/><path class="cls-2" d="M165.08,82.54a82.52,82.52,0,0,1-82.54,82.54V132.72a50.19,50.19,0,0,0,49.66-43,52.86,52.86,0,0,0,.52-7.17Z"/><path class="cls-3" d="M32.89,75.37a50.13,50.13,0,0,0,42.48,56.82,51.32,51.32,0,0,0,7.17.53v30.85a1.49,1.49,0,0,1-1.49,1.49h-.39A82.54,82.54,0,0,1,81.24,0a1.49,1.49,0,0,1,1.3,1.48V32.37A50.16,50.16,0,0,0,32.89,75.37Z"/><path class="cls-3" d="M82.54,163.57v1.51c-.63,0-1.25,0-1.88,0h.39A1.49,1.49,0,0,0,82.54,163.57Z"/><path class="cls-3" d="M82.54,0V1.49A1.49,1.49,0,0,0,81.24,0Z"/><path class="cls-3" d="M88.66,40.15a43.79,43.79,0,0,0-6.12-.45A42.86,42.86,0,0,0,40.15,76.42a43.9,43.9,0,0,0-.45,6.12,42.83,42.83,0,0,0,85.23,6.12,42.32,42.32,0,0,0,.45-6.12A42.84,42.84,0,0,0,88.66,40.15ZM113.16,87a31,31,0,0,1-30.62,26.52,31.64,31.64,0,0,1-4.42-.33A30.92,30.92,0,0,1,51.61,82.54a30.17,30.17,0,0,1,.32-4.42A30.93,30.93,0,0,1,82.54,51.6a33.09,33.09,0,0,1,4.42.32,30.94,30.94,0,0,1,26.52,30.62A31.51,31.51,0,0,1,113.16,87Z"/><path class="cls-2" d="M103.25,82.54A20.12,20.12,0,0,1,103,85.2,20.72,20.72,0,0,1,82.54,103a21.15,21.15,0,0,1-3-.21,20.71,20.71,0,0,1-17.75-20.2A20.1,20.1,0,0,1,62,79.27a20.72,20.72,0,0,1,20.5-17.75,19.76,19.76,0,0,1,3,.22A20.7,20.7,0,0,1,103.25,82.54Z"/></svg>