<svg id="Layer_1" data-name="Layer 1" xmlns="http://www.w3.org/2000/svg" viewBox="0 0 132.85 170.24"><defs><style>.cls-1{fill:none;}.cls-2{fill:#fbbc04;}.cls-3{fill:#0f9d58;}.cls-4{fill:#4182f6;}</style></defs><path class="cls-1" d="M61.14,20.35a21.36,21.36,0,0,1,2.85.76,21.1,21.1,0,0,1,10.51,8q.56.8,1,1.62a18.47,18.47,0,0,1,.87,1.72c.27.59.5,1.19.72,1.8a21.1,21.1,0,0,1-18,27.86V85.58a26.79,26.79,0,1,1,0,46.93v15a40.56,40.56,0,1,0,12.93-79c-1.13,0-2.25.05-3.35.14a29.18,29.18,0,0,0-9.58-56.74v8.18C59.83,20.13,60.49,20.23,61.14,20.35Z"/><path class="cls-2" d="M97.5,53.84A40.43,40.43,0,0,0,59.16.67H58.9a1.58,1.58,0,0,1,.26.86V11.89a29.18,29.18,0,0,1,9.58,56.74c1.1-.09,2.22-.14,3.35-.14a40.56,40.56,0,1,1-12.93,79v20.94A60.78,60.78,0,0,0,97.5,53.84Z"/><path class="cls-3" d="M74.5,29.07q.56.8,1,1.62Q75.05,29.87,74.5,29.07Z"/><path class="cls-3" d="M76.91,48.48a21.35,21.35,0,0,0,.2-14.27c-.22-.61-.45-1.21-.72-1.8a18.47,18.47,0,0,0-.87-1.72q-.47-.82-1-1.62a21.1,21.1,0,0,0-10.51-8,21.36,21.36,0,0,0-2.85-.76c-.65-.12-1.31-.22-2-.28v42A21.13,21.13,0,0,0,76.91,48.48Z"/><path class="cls-4" d="M59.16,11.89V1.53A1.58,1.58,0,0,0,58.9.67,1.55,1.55,0,0,0,57.62,0H1.53A1.54,1.54,0,0,0,0,1.53V168.71a1.53,1.53,0,0,0,1.53,1.53H57.62a1.53,1.53,0,0,0,1.54-1.53V147.49a40.57,40.57,0,0,1,0-76.89v-.36a29.18,29.18,0,1,1,0-58.35Z"/><path class="cls-4" d="M59.16,85.58v-15a40.57,40.57,0,0,0,0,76.89V85.58Z"/><path class="cls-4" d="M30,41.07A29.17,29.17,0,0,0,59.16,70.24V62.07q-1,.09-2,.09a21.1,21.1,0,1,1,0-42.19,19.05,19.05,0,0,1,2,.1V11.89A29.19,29.19,0,0,0,30,41.07Z"/><path class="cls-4" d="M57.15,20a21.1,21.1,0,1,0,0,42.19q1,0,2-.09v-42A19.05,19.05,0,0,0,57.15,20Z"/><path class="cls-3" d="M72.09,135.83A26.79,26.79,0,1,0,59.16,85.58v46.93A26.62,26.62,0,0,0,72.09,135.83Z"/></svg>