<svg id="Layer_1" data-name="Layer 1" xmlns="http://www.w3.org/2000/svg" viewBox="0 0 124.26 144.07"><defs><style>.cls-1{fill:#fbbc04;}.cls-2{fill:#4182f6;}.cls-3{fill:#0f9d58;}</style></defs><path class="cls-1" d="M71.09.22H0V41.47H46.1a36.18,36.18,0,0,1,5.19-1.19Z"/><path class="cls-1" d="M68.41,113,53,144.07h71.28V101.46H85.63A37.61,37.61,0,0,1,68.41,113Z"/><path class="cls-2" d="M51.68,114.34a37.29,37.29,0,0,1-23.24-12.88,38.76,38.76,0,0,1-4.29-6.26L0,144.07H53L68.41,113A37.33,37.33,0,0,1,51.68,114.34Z"/><path class="cls-2" d="M71.2,0l-.11.22L51.29,40.28q1.64-.26,3.3-.36a37.3,37.3,0,0,1,7.8.31,37.4,37.4,0,0,1,29.73,24c.07.19.14.37.2.55L124.26.37Z"/><path class="cls-1" d="M72.13,105.47a32.8,32.8,0,0,0,5.83-4H74.12Z"/><path class="cls-1" d="M72.13,105.47l2-4h-38a32,32,0,0,0,36,4Z"/><path class="cls-1" d="M88.61,72.24l-.15-.85a32,32,0,1,0-52.35,30.07H78A32.06,32.06,0,0,0,88.61,72.24Zm-34.88,27.9A23.1,23.1,0,0,1,34,75.18c0-.4.09-.79.15-1.19A23.09,23.09,0,0,1,55.56,54.24,23.13,23.13,0,0,1,79.88,80.59a23.08,23.08,0,0,1-26.15,19.55Z"/><path class="cls-3" d="M59.4,61.79l-.16,0a16.07,16.07,0,1,0,.16,0Z"/></svg>