<svg id="Layer_1" data-name="Layer 1" xmlns="http://www.w3.org/2000/svg" xmlns:xlink="http://www.w3.org/1999/xlink" viewBox="0 0 165.8 165.8"><defs><style>.cls-1,.cls-3,.cls-4{fill:none;}.cls-2{clip-path:url(#clip-path);}.cls-3{stroke:#fff;stroke-miterlimit:10;stroke-width:0.54px;}.cls-4{stroke:#e0e0e0;stroke-width:0.52px;}.cls-5{fill:#fbbc04;}.cls-6{fill:#0f9d58;}.cls-7{fill:#4182f6;}.cls-8{fill:#fff;}</style><clipPath id="clip-path"><rect class="cls-1" x="544.63" y="523.24" width="577.75" height="366.87"/></clipPath></defs><g class="cls-2"><line class="cls-3" x1="1663.64" y1="0.97" x2="154.38" y2="865.91"/><line class="cls-3" x1="1648.42" y1="-24.79" x2="139.16" y2="840.15"/><line class="cls-3" x1="1633.19" y1="-50.56" x2="123.93" y2="814.38"/><line class="cls-3" x1="1617.97" y1="-76.32" x2="108.71" y2="788.62"/><line class="cls-3" x1="1602.75" y1="-102.08" x2="93.48" y2="762.86"/><line class="cls-3" x1="1587.52" y1="-127.84" x2="78.26" y2="737.1"/><line class="cls-3" x1="1572.3" y1="-153.61" x2="63.04" y2="711.33"/><line class="cls-3" x1="1557.07" y1="-179.37" x2="47.81" y2="685.57"/><line class="cls-4" x1="1663.64" y1="0.97" x2="154.38" y2="865.91"/><line class="cls-4" x1="1648.42" y1="-24.79" x2="139.16" y2="840.15"/><line class="cls-4" x1="1633.19" y1="-50.56" x2="123.93" y2="814.38"/><line class="cls-4" x1="1617.97" y1="-76.32" x2="108.71" y2="788.62"/><line class="cls-4" x1="1602.75" y1="-102.08" x2="93.48" y2="762.86"/><line class="cls-4" x1="1587.52" y1="-127.84" x2="78.26" y2="737.1"/><line class="cls-4" x1="1572.3" y1="-153.61" x2="63.04" y2="711.33"/><line class="cls-4" x1="1557.07" y1="-179.37" x2="47.81" y2="685.57"/></g><path class="cls-1" d="M49.48,87.18v.1s0,0,0-.08Z"/><path class="cls-1" d="M49.4,79.77s0-.1,0-.15,0,.1,0,.15,0,.33,0,.49,0,.12,0,.18,0-.12,0-.18S49.38,79.93,49.4,79.77Z"/><path class="cls-1" d="M85.08,118.92a35.83,35.83,0,0,0,2.31-71.59l-.84,0H85.08v71.63Z"/><polygon class="cls-5" points="82.9 165.8 82.9 165.8 82.9 165.8 82.9 165.8"/><path class="cls-5" d="M124.18,11l-.64-.36-.88-.49A82.44,82.44,0,0,0,85.08,0V28.6a54.5,54.5,0,0,1,0,109v28.18A82.91,82.91,0,0,0,124.18,11Z"/><path class="cls-6" d="M79.29,118.46l-.54-.1Z"/><path class="cls-6" d="M80.86,118.67l.4,0-.33,0Z"/><path class="cls-6" d="M80.12,118.58l-.39-.06Z"/><path class="cls-6" d="M78.43,118.31l-.86-.18Z"/><path class="cls-6" d="M80.84,118.67h-.12Z"/><path class="cls-6" d="M83.66,47.29l.49,0-.55,0h-.7v0Z"/><path class="cls-6" d="M85.07,118.92v18.67h0a54.5,54.5,0,0,0,0-109h0V47.29h2.07a1.09,1.09,0,0,1,.25,0,35.83,35.83,0,0,1-2.31,71.59"/><path class="cls-7" d="M85.07,137.59c-.73,0-1.45,0-2.17-.05a54.49,54.49,0,0,1,0-108.9c.72,0,1.44,0,2.17,0h0V.14c-.64,0-1.29,0-1.94,0H82.9V0H2.58A2.58,2.58,0,0,0,0,2.58V163.22a2.57,2.57,0,0,0,2.58,2.58H82.9c.73,0,1.46,0,2.18,0V137.59Z"/><path class="cls-7" d="M49.54,87.69s0,0,0,.07v0A.06.06,0,0,1,49.54,87.69Z"/><path class="cls-7" d="M53.79,100.46l-.09-.15.13.24Z"/><path class="cls-7" d="M85.08,0H82.9c.73,0,1.46,0,2.18,0Z"/><path class="cls-7" d="M83.14.11c.65,0,1.3,0,1.94,0V0c-.72,0-1.45,0-2.18,0h0V.11Z"/><path class="cls-7" d="M85.08,165.8v0c-.72,0-1.45,0-2.18,0Z"/><path class="cls-8" d="M49.47,87.07a1,1,0,0,1,0-.16,1.64,1.64,0,0,1,0,.23v-.07Z"/><path class="cls-8" d="M49.47,87.07v.13S49.47,87.11,49.47,87.07Z"/><path class="cls-8" d="M82.37,118.82l.53,0-.21,0Z"/><path class="cls-8" d="M73.94,117.13l-.4-.14-.06,0Z"/><path class="cls-8" d="M72.83,116.74h0l.23.08Z"/><path class="cls-8" d="M82.69,118.84l.21,0h-.21Z"/><path class="cls-8" d="M82.9,118.86c.41,0,.83,0,1.25,0-.42,0-.84,0-1.25-.06Z"/><path class="cls-8" d="M80.72,118.65l-.6-.07Z"/><path class="cls-8" d="M80.66,118.64l.14,0,.13,0H81Z"/><path class="cls-8" d="M78.75,118.36l-.32,0Z"/><path class="cls-8" d="M79.73,118.52l-.44-.06Z"/><path class="cls-8" d="M80.93,118.68l.33,0-.23,0Z"/><path class="cls-8" d="M81.26,118.72l.27,0,.51,0-.23,0Z"/><path class="cls-5" d="M83.66,47.29h1.41v0h-.92Z"/><path class="cls-5" d="M83.66,47.29l-.76,0h-.16c-.54,0-1.08.08-1.61.14l-.66.09-.38,0-.68.11-.7.12-.39.07-.52.1-.69.15-.58.15-.18,0-.5.13-.25.07-.7.2-.69.22-.08,0-.72.24-.64.24-.17.06-.58.22-.2.08-.45.19-.36.15-.39.17-.28.12-.44.21-.25.12-.5.25L69,51.1l-.57.3-.86.47-.52.3-.66.39-.65.42-.64.42c-.86.58-1.68,1.19-2.48,1.84-.2.16-.4.32-.59.49l-.59.5-.42.38c-.35.32-.69.64-1,1-.13.12-.26.24-.38.37l-.49.51-.26.27-.38.42c-.18.19-.35.38-.51.58l-.06.06-.37.44-.27.33c-.15.17-.29.35-.43.53l-.29.38c-.22.29-.44.58-.65.88l-.27.38-.25.36a1.19,1.19,0,0,0-.09.15q-.2.27-.36.54c-.18.27-.35.54-.51.82l-.31.5c-.16.28-.33.57-.48.85l-.27.51c-.14.25-.27.51-.4.77l-.3.61c-.22.47-.43.94-.64,1.42-.1.24-.2.48-.29.72s-.19.49-.28.73-.13.35-.19.52-.23.64-.33,1-.16.5-.23.75q-.34,1.13-.6,2.28a0,0,0,0,0,0,0c0,.26-.11.51-.16.77h0q-.09.38-.15.78l-.12.68c0,.08,0,.17,0,.26s0,.29-.06.44,0,.22-.05.33,0,.41-.07.61a.22.22,0,0,0,0,.08c0,.14,0,.28-.05.43s0,.1,0,.15,0,.33,0,.49,0,.12,0,.18c0,.28,0,.57-.05.86h0c0,.29,0,.58,0,.87s0,.61,0,.92,0,.62,0,.93c0,.58,0,1.16.09,1.73,0,.31,0,.62.08.93,0,.13,0,.26,0,.39s0,.09,0,.13,0,0,0,.08,0,.21,0,.31a.68.68,0,0,0,0,.14v0a.52.52,0,0,0,0,.11c0,.17,0,.34.07.5s0,.31.07.46,0,.21,0,.32,0,.23.07.35l.06.35s0,.05,0,.07c.05.25.1.51.16.76a2.46,2.46,0,0,0,.07.29c0,.13,0,.25.08.37s.06.26.1.38.11.44.17.66c.32,1.17.69,2.31,1.12,3.43l0,0v0a1.8,1.8,0,0,1,.08.21l.17.42,0,.09v0c0,.11.09.22.13.32l.17.39.26.57s0,0,0,0,.15.32.23.49.27.55.41.82.18.36.28.54.07.13.1.19l.17.31.09.15,0,.09,0,0,.06.11a2.75,2.75,0,0,0,.17.29,1.28,1.28,0,0,0,.15.25c.09.17.19.33.29.49a2.39,2.39,0,0,0,.13.21l.27.43.09.14.1.15.23.34.14.21,0,0,.09.12.21.3a.05.05,0,0,0,0,0l.15.2.28.39a0,0,0,0,0,0,0l.09.13.36.47.06.07.41.52,0,.07.42.5.06.07.05.06.33.38.23.27.19.21.2.21c.14.16.29.32.44.47l.4.42.12.12.07.07.45.45h0a.3.3,0,0,0,.08.08l.88.82.13.12.23.2.27.23.06.06.1.08.58.48.48.39.42.32.28.21,0,0c.15.11.3.23.45.33l.11.08.45.32.17.12.5.33a.91.91,0,0,0,.13.08,3.53,3.53,0,0,0,.32.21l.3.19c.21.14.43.27.65.4l.47.28.18.1.52.29.08,0,.36.19.18.09.19.1.47.24.14.07.47.23.13,0,.68.32h0l.18.08.45.19.31.13.36.15.12,0,.62.24h0l.2.07.29.11h0l.18.06q.36.14.72.24l.06,0,.33.11.17,0,.17,0c.25.07.5.15.76.21l.54.15.18,0,.09,0,.65.16h.05l.38.08.21.05.18,0,.14,0,.55.11.71.12h.08l.65.1h.13l.37,0,.37,0,.78.08.71,0,.17,0h.21c.41,0,.83.05,1.25.06h.92V47.29Z"/><path class="cls-5" d="M49.43,79.47s0,.1,0,.15c0-.15,0-.29.05-.43A2.4,2.4,0,0,0,49.43,79.47Z"/><path class="cls-5" d="M49.42,86.68c0-.31-.06-.62-.08-.93l.06.63v.06c0,.07,0,.13,0,.19a.49.49,0,0,0,0,.12c0,.06,0,.11,0,.16a1,1,0,0,0,0,.16C49.45,86.94,49.44,86.81,49.42,86.68Z"/><path class="cls-5" d="M49.5,87.38l0,.2h0c0-.1,0-.21,0-.31S49.5,87.34,49.5,87.38Z"/><path class="cls-5" d="M49.32,80.78l0,.52c0-.29,0-.58.05-.86C49.33,80.55,49.32,80.66,49.32,80.78Z"/><path class="cls-5" d="M52.69,67.84c-.23.47-.44.94-.64,1.42C52.26,68.78,52.47,68.31,52.69,67.84Z"/><path class="cls-5" d="M58.73,107.27l-.2-.21.13.14Z"/><path class="cls-5" d="M61.54,110l-.23-.2,0,0Z"/><path class="cls-5" d="M72.77,116.72h0l-.62-.24.4.16Z"/><path class="cls-5" d="M68.46,114.79l-.36-.19.09.05Z"/><path class="cls-5" d="M70.72,115.89l-.68-.32.35.17Z"/><path class="cls-5" d="M59.57,108.16l-.4-.42.07.08Z"/><path class="cls-5" d="M55.61,103.37l-.09-.12,0,0Z"/><path class="cls-5" d="M80.66,118.64l-.37,0h.13A1,1,0,0,0,80.66,118.64Z"/><path class="cls-5" d="M81,118.69l.23,0,.55,0Z"/><path class="cls-5" d="M82.52,118.82l-.71,0,.23,0,.33,0,.32,0Z"/><path class="cls-5" d="M77.21,118l-.65-.16.64.16Z"/><path class="cls-5" d="M73.54,117l-.18-.06.12,0Z"/><path class="cls-5" d="M76.56,117.88l-.09,0h0Z"/><path class="cls-5" d="M79.43,118.47l-.71-.12.1,0Z"/><path class="cls-5" d="M74.26,117.23q-.36-.11-.72-.24l.4.14Z"/><path class="cls-5" d="M59.17,107.74c-.15-.15-.3-.31-.44-.47.16.18.33.37.51.55Z"/><path class="cls-5" d="M59.69,108.28l-.12-.12-.33-.34C59.39,108,59.53,108.13,59.69,108.28Z"/><path class="cls-5" d="M76.47,117.86l-.18,0,.18,0Z"/><path class="cls-6" d="M87.14,47.29h-.59l.84,0A1.09,1.09,0,0,0,87.14,47.29Z"/></svg>