<svg id="Layer_1" data-name="Layer 1" xmlns="http://www.w3.org/2000/svg" viewBox="0 0 175.08 175.08"><defs><style>.cls-1{fill:#fbbc04;}.cls-2{fill:#4182f6;}.cls-3{fill:#0f9d58;}.cls-4{fill:#fff;}</style></defs><path class="cls-1" d="M82.26,51.05c.54-.08,1.08-.15,1.63-.2s1.17-.1,1.76-.13,1.26,0,1.89,0v73.74c-.63,0-1.26,0-1.89,0s-1.18-.08-1.76-.13a36.89,36.89,0,0,1-33-33c-.06-.59-.1-1.17-.13-1.76s0-1.26,0-1.9,0-1.27,0-1.9.07-1.17.13-1.75"/><path class="cls-1" d="M87.54,0V27.47a60.07,60.07,0,0,0,0,120.14v27.47C39.52,175.08,0,135.57,0,87.54S39.52,0,87.54,0Z"/><path class="cls-2" d="M175.08,87.54H124.42A36.88,36.88,0,0,0,87.54,50.67V0a87.54,87.54,0,0,1,87.54,87.54Z"/><path class="cls-3" d="M147.61,87.54H124.42A36.88,36.88,0,0,0,87.54,50.67V27.47a60.07,60.07,0,0,1,60.07,60.07Z"/><path class="cls-1" d="M147.61,87.54a60.06,60.06,0,0,1-60.07,60.07v-23.2a36.87,36.87,0,0,0,36.88-36.87Z"/><path class="cls-4" d="M82.26,51.05c.54-.08,1.08-.15,1.63-.2s1.17-.1,1.76-.13,1.26,0,1.89,0v73.74c-.63,0-1.26,0-1.89,0s-1.18-.08-1.76-.13a36.89,36.89,0,0,1-33-33c-.06-.59-.1-1.17-.13-1.76s0-1.26,0-1.9,0-1.27,0-1.9.07-1.17.13-1.75"/><path class="cls-2" d="M87.54,50.67v73.74c-.63,0-1.26,0-1.89,0s-1.18-.08-1.76-.13a37.12,37.12,0,0,1-33-33c-.06-.59-.1-1.17-.13-1.76s0-1.26,0-1.9,0-1.27,0-1.9.07-1.17.13-1.75A37.16,37.16,0,0,1,82.26,51.05c.54-.08,1.08-.15,1.63-.2s1.17-.1,1.76-.13S86.91,50.67,87.54,50.67Z"/></svg>