<svg id="Layer_1" data-name="Layer 1" xmlns="http://www.w3.org/2000/svg" viewBox="0 0 165.63 165.63"><defs><style>.cls-1{fill:#fbbc04;}.cls-2{fill:#4182f6;}.cls-3{fill:#fff;}.cls-4{fill:#0f9d58;}</style></defs><path class="cls-1" d="M82.82,97.9l15.94,15.95a34.71,34.71,0,0,1-15.94,3.85Z"/><path class="cls-1" d="M117.7,82.82a34.79,34.79,0,0,1-3.82,15.89L98,82.82Z"/><path class="cls-1" d="M114.74,129.83l18.61,18.6a82.84,82.84,0,0,1-50.53,17.2v-26A56.82,56.82,0,0,0,114.74,129.83Z"/><path class="cls-1" d="M165.63,82.82a82.81,82.81,0,0,1-17.16,50.48l-18.61-18.61a56.82,56.82,0,0,0,9.79-31.87Z"/><path class="cls-2" d="M78.56,117.44a34.21,34.21,0,0,1-5.09-1l-.69-.2-.53-.16-.85-.28-.69-.25-.49-.19-.44-.17-.56-.23-.52-.23-.59-.26-.46-.22-.42-.21-.44-.23-.07,0c-.16-.08-.32-.16-.47-.25l-.57-.31-.52-.31-.07,0-.55-.34c-.24-.14-.47-.29-.7-.44s-.4-.26-.59-.4-.35-.23-.52-.35a35.53,35.53,0,0,1-3.52-2.84l-.45-.43c-.41-.39-.81-.78-1.2-1.19l-.42-.46a34.41,34.41,0,0,1-2.84-3.52l-.36-.51-.39-.59-.45-.7-.33-.56,0-.06-.31-.53c-.1-.19-.2-.38-.31-.57l-.24-.46,0-.07-.23-.45c-.07-.14-.14-.28-.2-.42s-.15-.3-.22-.46l-.27-.59c-.08-.17-.15-.34-.22-.51s-.16-.37-.23-.56-.12-.3-.18-.45l-.19-.49-.24-.68-.29-.86c-.05-.17-.11-.35-.16-.53s-.14-.46-.2-.69a34.21,34.21,0,0,1-1-5.09A35.16,35.16,0,0,0,78.56,117.44Z"/><path class="cls-2" d="M48.19,78.56a34.21,34.21,0,0,1,1-5.09c.06-.23.13-.46.2-.69s.11-.35.16-.53.19-.57.29-.85l.24-.69c.06-.16.13-.32.19-.49s.11-.3.18-.44.15-.38.23-.56.14-.35.22-.52l.27-.59.22-.46c.06-.14.13-.28.2-.42s.15-.3.23-.44a.16.16,0,0,1,0-.07l.24-.47c.11-.19.21-.38.31-.57s.21-.35.31-.52l0-.07.33-.55.45-.7.39-.59.36-.52a35.53,35.53,0,0,1,2.84-3.52l.42-.45q.59-.61,1.2-1.2l.45-.42a35.53,35.53,0,0,1,3.52-2.84l.52-.36.59-.39.7-.45.55-.33.07,0,.52-.31.57-.31.47-.24.07,0,.44-.23.42-.2.46-.22.59-.27.52-.22.56-.23c.14-.07.29-.12.44-.18l.49-.19.69-.24.85-.29.53-.16.69-.2a34.21,34.21,0,0,1,5.09-1A35.17,35.17,0,0,0,48.19,78.56Z"/><path class="cls-2" d="M117.44,78.56A35.16,35.16,0,0,0,87.07,48.19a34.21,34.21,0,0,1,5.09,1l.69.2.53.16.86.29.68.24.49.19.45.18.56.23.51.22.59.27.46.22.42.2.45.23.07,0,.46.24.57.31.53.31.06,0,.56.33.7.45.59.39.51.36a34.41,34.41,0,0,1,3.52,2.84l.46.42c.41.39.8.79,1.19,1.2l.43.45a35.53,35.53,0,0,1,2.84,3.52c.12.17.24.34.35.52s.27.39.4.59.3.46.44.7.23.37.34.55l0,.07c.11.17.21.35.31.52s.21.38.31.57.17.31.25.47l0,.07c.08.14.16.29.23.44l.21.42c.07.16.15.31.22.46s.18.39.26.59.15.34.23.52.15.37.23.56.12.29.17.44.13.33.19.49.17.46.25.69l.28.85c.06.18.11.36.16.53s.14.46.2.69A34.21,34.21,0,0,1,117.44,78.56Z"/><path class="cls-2" d="M165.63,82.82h-26a56.83,56.83,0,1,0-56.83,56.82v26C37.39,165.63,0,128.25,0,82.82S37.39,0,82.82,0a82.81,82.81,0,0,1,82.81,82.82Z"/><path class="cls-1" d="M139.65,82.82h-22c0-.9,0-1.8-.1-2.69,0-.26,0-.53-.07-.8l-.09-.77a34.21,34.21,0,0,0-1-5.09c-.06-.23-.13-.46-.2-.69s-.1-.35-.16-.53l-.28-.85c-.08-.23-.16-.46-.25-.69s-.12-.32-.19-.49-.11-.29-.17-.44-.15-.38-.23-.56-.15-.35-.23-.52-.17-.39-.26-.59-.15-.3-.22-.46l-.21-.42c-.07-.15-.15-.3-.23-.44l0-.07c-.08-.16-.16-.32-.25-.47s-.2-.38-.31-.57-.2-.35-.31-.52l0-.07c-.11-.18-.22-.37-.34-.55s-.29-.47-.44-.7-.26-.4-.4-.59-.23-.35-.35-.52a35.53,35.53,0,0,0-2.84-3.52l-.43-.45c-.39-.41-.78-.81-1.19-1.2l-.46-.42a34.41,34.41,0,0,0-3.52-2.84l-.51-.36-.59-.39-.7-.45-.56-.33-.06,0-.53-.31-.57-.31-.46-.24-.07,0-.45-.23L98,51.4l-.46-.22-.59-.27-.51-.22-.56-.23-.45-.18-.49-.19-.68-.24-.86-.29-.53-.16-.69-.2a34.21,34.21,0,0,0-5.09-1l-.77-.08L85.5,48c-.89-.07-1.78-.11-2.68-.11S81,48,80.13,48l-.8.07-.77.08a34.21,34.21,0,0,0-5.09,1l-.69.2-.53.16-.85.29-.69.24-.49.19-.44.18-.56.23-.52.22-.59.27-.46.22-.42.2-.44.23-.07,0-.47.24-.57.31-.52.31-.07,0-.55.33-.7.45-.59.39-.52.36a35.53,35.53,0,0,0-3.52,2.84l-.45.42q-.61.59-1.2,1.2l-.42.45a35.53,35.53,0,0,0-2.84,3.52l-.36.52-.39.59-.45.7-.33.55,0,.07c-.1.17-.2.35-.31.52s-.2.38-.31.57l-.24.47a.16.16,0,0,0,0,.07c-.08.14-.15.29-.23.44s-.14.28-.2.42l-.22.46-.27.59c-.08.17-.15.34-.22.52s-.16.37-.23.56-.12.29-.18.44-.13.33-.19.49l-.24.69c-.1.28-.19.57-.29.85s-.11.36-.16.53-.14.46-.2.69a34.21,34.21,0,0,0-1,5.09c0,.26-.06.52-.08.77s0,.54-.07.8c-.07.89-.11,1.79-.11,2.69s0,1.79.11,2.68c0,.27,0,.54.07.8s0,.52.08.77a34.21,34.21,0,0,0,1,5.09c.06.23.13.46.2.69s.11.36.16.53l.29.86.24.68.19.49c.06.15.11.3.18.45s.15.37.23.56.14.34.22.51l.27.59c.07.16.14.31.22.46s.13.28.2.42l.23.45,0,.07.24.46c.11.19.21.38.31.57l.31.53,0,.06.33.56.45.7.39.59.36.51a34.41,34.41,0,0,0,2.84,3.52l.42.46c.39.41.79.8,1.2,1.19l.45.43a35.53,35.53,0,0,0,3.52,2.84c.17.12.34.24.52.35s.39.27.59.4.46.3.7.44l.55.34.07,0,.52.31.57.31c.15.09.31.17.47.25l.07,0,.44.23.42.21.46.22.59.26.52.23.56.23.44.17.49.19.69.25.85.28.53.16.69.2a34.21,34.21,0,0,0,5.09,1l.77.09.8.07c.89.06,1.79.1,2.69.1v21.94a56.82,56.82,0,1,1,56.83-56.82Z"/><path class="cls-1" d="M117.44,78.56A35.16,35.16,0,0,0,87.07,48.19a34.21,34.21,0,0,1,5.09,1l.69.2.53.16.86.29.68.24.49.19.45.18.56.23.51.22.59.27.46.22.42.2.45.23.07,0,.46.24.57.31.53.31.06,0,.56.33.7.45.59.39.51.36a34.41,34.41,0,0,1,3.52,2.84l.46.42c.41.39.8.79,1.19,1.2l.43.45a35.53,35.53,0,0,1,2.84,3.52c.12.17.24.34.35.52s.27.39.4.59.3.46.44.7.23.37.34.55l0,.07c.11.17.21.35.31.52s.21.38.31.57.17.31.25.47l0,.07c.08.14.16.29.23.44l.21.42c.07.16.15.31.22.46s.18.39.26.59.15.34.23.52.15.37.23.56.12.29.17.44.13.33.19.49.17.46.25.69l.28.85c.06.18.11.36.16.53s.14.46.2.69A34.21,34.21,0,0,1,117.44,78.56Z"/><path class="cls-3" d="M82.82,97.9l15.94,15.95a34.71,34.71,0,0,1-15.94,3.85Z"/><path class="cls-3" d="M117.7,82.82a34.79,34.79,0,0,1-3.82,15.89L98,82.82Z"/><path class="cls-1" d="M78.56,117.44a34.21,34.21,0,0,1-5.09-1l-.69-.2-.53-.16-.85-.28-.69-.25-.49-.19-.44-.17-.56-.23-.52-.23-.59-.26-.46-.22-.42-.21-.44-.23-.07,0c-.16-.08-.32-.16-.47-.25l-.57-.31-.52-.31-.07,0-.55-.34c-.24-.14-.47-.29-.7-.44s-.4-.26-.59-.4-.35-.23-.52-.35a35.53,35.53,0,0,1-3.52-2.84l-.45-.43c-.41-.39-.81-.78-1.2-1.19l-.42-.46a34.41,34.41,0,0,1-2.84-3.52l-.36-.51-.39-.59-.45-.7-.33-.56,0-.06-.31-.53c-.1-.19-.2-.38-.31-.57l-.24-.46,0-.07-.23-.45c-.07-.14-.14-.28-.2-.42s-.15-.3-.22-.46l-.27-.59c-.08-.17-.15-.34-.22-.51s-.16-.37-.23-.56-.12-.3-.18-.45l-.19-.49-.24-.68-.29-.86c-.05-.17-.11-.35-.16-.53s-.14-.46-.2-.69a34.21,34.21,0,0,1-1-5.09A35.16,35.16,0,0,0,78.56,117.44Z"/><path class="cls-1" d="M48.19,78.56a34.21,34.21,0,0,1,1-5.09c.06-.23.13-.46.2-.69s.11-.35.16-.53.19-.57.29-.85l.24-.69c.06-.16.13-.32.19-.49s.11-.3.18-.44.15-.38.23-.56.14-.35.22-.52l.27-.59.22-.46c.06-.14.13-.28.2-.42s.15-.3.23-.44a.16.16,0,0,1,0-.07l.24-.47c.11-.19.21-.38.31-.57s.21-.35.31-.52l0-.07.33-.55.45-.7.39-.59.36-.52a35.53,35.53,0,0,1,2.84-3.52l.42-.45q.59-.61,1.2-1.2l.45-.42a35.53,35.53,0,0,1,3.52-2.84l.52-.36.59-.39.7-.45.55-.33.07,0,.52-.31.57-.31.47-.24.07,0,.44-.23.42-.2.46-.22.59-.27.52-.22.56-.23c.14-.07.29-.12.44-.18l.49-.19.69-.24.85-.29.53-.16.69-.2a34.21,34.21,0,0,1,5.09-1A35.17,35.17,0,0,0,48.19,78.56Z"/><path class="cls-1" d="M78.56,117.44a34.21,34.21,0,0,1-5.09-1l-.69-.2-.53-.16-.85-.28-.69-.25-.49-.19-.44-.17-.56-.23-.52-.23-.59-.26-.46-.22-.42-.21-.44-.23-.07,0c-.16-.08-.32-.16-.47-.25l-.57-.31-.52-.31-.07,0-.55-.34c-.24-.14-.47-.29-.7-.44s-.4-.26-.59-.4-.35-.23-.52-.35a35.53,35.53,0,0,1-3.52-2.84l-.45-.43c-.41-.39-.81-.78-1.2-1.19l-.42-.46a34.41,34.41,0,0,1-2.84-3.52l-.36-.51-.39-.59-.45-.7-.33-.56,0-.06-.31-.53c-.1-.19-.2-.38-.31-.57l-.24-.46,0-.07-.23-.45c-.07-.14-.14-.28-.2-.42s-.15-.3-.22-.46l-.27-.59c-.08-.17-.15-.34-.22-.51s-.16-.37-.23-.56-.12-.3-.18-.45l-.19-.49-.24-.68-.29-.86c-.05-.17-.11-.35-.16-.53s-.14-.46-.2-.69a34.21,34.21,0,0,1-1-5.09A35.16,35.16,0,0,0,78.56,117.44Z"/><path class="cls-1" d="M73.47,49.2a34.21,34.21,0,0,1,5.09-1A35.17,35.17,0,0,0,48.19,78.56a34.21,34.21,0,0,1,1-5.09c.06-.23.13-.46.2-.69s.11-.35.16-.53.19-.57.29-.85l.24-.69c.06-.16.13-.32.19-.49s.11-.3.18-.44.15-.38.23-.56.14-.35.22-.52l.27-.59.22-.46c.06-.14.13-.28.2-.42s.15-.3.23-.44a.16.16,0,0,1,0-.07l.24-.47c.11-.19.21-.38.31-.57s.21-.35.31-.52l0-.07.33-.55.45-.7.39-.59.36-.52a35.53,35.53,0,0,1,2.84-3.52l.42-.45q.59-.61,1.2-1.2l.45-.42a35.53,35.53,0,0,1,3.52-2.84l.52-.36.59-.39.7-.45.55-.33.07,0,.52-.31.57-.31.47-.24.07,0,.44-.23.42-.2.46-.22.59-.27.52-.22.56-.23c.14-.07.29-.12.44-.18l.49-.19.69-.24.85-.29.53-.16Z"/><path class="cls-1" d="M82.82,97.9l15.94,15.95a34.71,34.71,0,0,1-15.94,3.85Z"/><path class="cls-1" d="M87.07,48.19a34.21,34.21,0,0,1,5.09,1l.69.2.53.16.86.29.68.24.49.19.45.18.56.23.51.22.59.27.46.22.42.2.45.23.07,0,.46.24.57.31.53.31.06,0,.56.33.7.45.59.39.51.36a34.41,34.41,0,0,1,3.52,2.84l.46.42c.41.39.8.79,1.19,1.2l.43.45a35.53,35.53,0,0,1,2.84,3.52c.12.17.24.34.35.52s.27.39.4.59.3.46.44.7.23.37.34.55l0,.07c.11.17.21.35.31.52s.21.38.31.57.17.31.25.47l0,.07c.08.14.16.29.23.44l.21.42c.07.16.15.31.22.46s.18.39.26.59.15.34.23.52.15.37.23.56.12.29.17.44.13.33.19.49.17.46.25.69l.28.85c.06.18.11.36.16.53s.14.46.2.69a34.21,34.21,0,0,1,1,5.09A35.16,35.16,0,0,0,87.07,48.19Z"/><path class="cls-1" d="M117.7,82.82a34.79,34.79,0,0,1-3.82,15.89L98,82.82Z"/><path class="cls-4" d="M117.7,82.82H82.82V117.7c-.9,0-1.8,0-2.69-.1l-.8-.07-.77-.09A35.16,35.16,0,0,1,48.19,87.07c0-.25-.06-.51-.08-.77s0-.53-.07-.8c-.07-.89-.11-1.78-.11-2.68s0-1.8.11-2.69c0-.26,0-.53.07-.8s0-.51.08-.77A35.17,35.17,0,0,1,78.56,48.19l.77-.08.8-.07c.89-.07,1.79-.11,2.69-.11s1.79,0,2.68.11l.8.07.77.08a35.16,35.16,0,0,1,30.37,30.37l.09.77c0,.27,0,.54.07.8C117.66,81,117.7,81.92,117.7,82.82Z"/></svg>