<svg id="Layer_1" data-name="Layer 1" xmlns="http://www.w3.org/2000/svg" xmlns:xlink="http://www.w3.org/1999/xlink" viewBox="0 0 154.1 166.67"><defs><style>.cls-1,.cls-3,.cls-4{fill:none;}.cls-2{clip-path:url(#clip-path);}.cls-3{stroke:#fff;stroke-miterlimit:10;stroke-width:0.54px;}.cls-4{stroke:#e0e0e0;stroke-width:0.52px;}.cls-5{fill:#4182f6;}.cls-6{fill:#fbbc04;}.cls-7{fill:#0f9d58;}</style><clipPath id="clip-path"><rect class="cls-1" x="538.78" y="270.7" width="577.75" height="366.87"/></clipPath></defs><g class="cls-2"><line class="cls-3" x1="1657.79" y1="-251.56" x2="148.53" y2="613.38"/><line class="cls-3" x1="1642.57" y1="-277.33" x2="133.31" y2="587.61"/><line class="cls-3" x1="1627.34" y1="-303.09" x2="118.08" y2="561.85"/><line class="cls-3" x1="1612.12" y1="-328.85" x2="102.86" y2="536.09"/><line class="cls-3" x1="1596.9" y1="-354.62" x2="87.63" y2="510.32"/><line class="cls-3" x1="1581.67" y1="-380.38" x2="72.41" y2="484.56"/><line class="cls-3" x1="1566.45" y1="-406.14" x2="57.19" y2="458.8"/><line class="cls-3" x1="1551.22" y1="-431.91" x2="41.96" y2="433.03"/><line class="cls-4" x1="1657.79" y1="-251.56" x2="148.53" y2="613.38"/><line class="cls-4" x1="1642.57" y1="-277.33" x2="133.31" y2="587.61"/><line class="cls-4" x1="1627.34" y1="-303.09" x2="118.08" y2="561.85"/><line class="cls-4" x1="1612.12" y1="-328.85" x2="102.86" y2="536.09"/><line class="cls-4" x1="1596.9" y1="-354.62" x2="87.63" y2="510.32"/><line class="cls-4" x1="1581.67" y1="-380.38" x2="72.41" y2="484.56"/><line class="cls-4" x1="1566.45" y1="-406.14" x2="57.19" y2="458.8"/><line class="cls-4" x1="1551.22" y1="-431.91" x2="41.96" y2="433.03"/></g><path class="cls-5" d="M57.92,3.61v29.8a50.68,50.68,0,0,0,0,96.3v33.36a3.61,3.61,0,0,1-3.61,3.6H3.61A3.61,3.61,0,0,1,0,163.07V3.61A3.61,3.61,0,0,1,3.61,0h50.7A3.61,3.61,0,0,1,57.92,3.61Z"/><path class="cls-5" d="M154.1,3.61V163.07a3.6,3.6,0,0,1-3.6,3.6H99.79a3.61,3.61,0,0,1-3.61-3.6V127a50.67,50.67,0,0,0,0-90.82V3.61A3.61,3.61,0,0,1,99.79,0H150.5A3.61,3.61,0,0,1,154.1,3.61Z"/><path class="cls-6" d="M96.18,44.6a43.26,43.26,0,1,0-38.26,77.24,44,44,0,0,0,9.61,2.53A43.25,43.25,0,0,0,96.18,44.6ZM104.62,86a31.25,31.25,0,1,1-8.44-26.15A31.06,31.06,0,0,1,104.62,86Z"/><circle class="cls-7" cx="73.63" cy="81.23" r="20.81"/></svg>