<svg id="Layer_1" data-name="Layer 1" xmlns="http://www.w3.org/2000/svg" viewBox="0 0 170.22 163.23"><defs><style>.cls-1{fill:#fbbc04;}.cls-2{fill:#4182f6;}.cls-3{fill:#0f9d58;}.cls-4{fill:#fff;}</style></defs><polygon class="cls-1" points="55.49 163.23 85.11 105.09 114.73 163.23 55.49 163.23"/><path class="cls-2" d="M95.26,80.35a10.26,10.26,0,1,1-8.68-11.62A10.26,10.26,0,0,1,95.26,80.35Z"/><path class="cls-2" d="M113.28,49.86l-.12.25L105.59,65a24.85,24.85,0,1,0-24,38.66,23.92,23.92,0,0,0,4.2.25l-.63,1.25-.52,1a.71.71,0,0,0-.1.14L55.68,162.86v0a.7.7,0,0,1-.6.35.67.67,0,0,1-.6-.37L27.07,109.1a.68.68,0,0,1,0-.62L57,49.83,81.09,2.47a4.51,4.51,0,0,1,8,0l24.14,47.37Z"/><path class="cls-3" d="M143.15,109.1l-27.39,53.76s0,0,0,0Z"/><path class="cls-2" d="M143.18,109h0l0,0h0l-27.41,53.8a.7.7,0,0,1-.59.33.69.69,0,0,1-.6-.36h0l-1.26-2.47L85.72,106.28a.67.67,0,0,0-1.11-.14l.52-1,.63-1.25A24.85,24.85,0,0,0,105.59,65l7.57-14.85.12-.25,29.87,58.62A.7.7,0,0,1,143.18,109Z"/><path class="cls-2" d="M170.07,161.31a1.32,1.32,0,0,1-1.17,1.92H115.57l.17-.33,27.41-53.8h0l0,0,.13-.25Z"/><path class="cls-2" d="M.15,161.31l26.76-52.52,27.74,54.44H1.32A1.32,1.32,0,0,1,.15,161.31Z"/><path class="cls-4" d="M95.26,80.35a10.26,10.26,0,1,1-8.68-11.62A10.26,10.26,0,0,1,95.26,80.35Z"/><path class="cls-1" d="M95.26,80.35a10.26,10.26,0,1,1-8.68-11.62A10.26,10.26,0,0,1,95.26,80.35Z"/><path class="cls-1" d="M103.66,68.75a21.22,21.22,0,1,0,2.44,13.31A21.14,21.14,0,0,0,103.66,68.75Zm-3.39,12.47a15.31,15.31,0,1,1-.19-5.45h0A15.27,15.27,0,0,1,100.27,81.22Z"/><path class="cls-4" d="M95.26,80.35a10.26,10.26,0,1,1-8.68-11.62A10.26,10.26,0,0,1,95.26,80.35Z"/><path class="cls-3" d="M95.26,80.35a10.26,10.26,0,1,1-8.68-11.62A10.26,10.26,0,0,1,95.26,80.35Z"/><path class="cls-3" d="M91,163.23l-5.19-10.18a.81.81,0,0,0-1.44,0L79.2,163.23Z"/></svg>