<svg id="Layer_1" data-name="Layer 1" xmlns="http://www.w3.org/2000/svg" viewBox="0 0 156.89 168.09"><defs><style>.cls-1{fill:none;}.cls-2{fill:#fbbc04;}.cls-3{fill:#4182f6;}.cls-4{fill:#fff;}.cls-5{fill:#0f9d58;}</style></defs><path class="cls-1" d="M80.61,127.16l-.12.24-.11-.2Z"/><path class="cls-2" d="M99.91,167.74l1.23-2.42-1.22,2.41Z"/><path class="cls-2" d="M129,112.59a.66.66,0,0,0-.5-.23.63.63,0,0,0-.58.37l.57-1.13Z"/><path class="cls-2" d="M78.78,128.09l-.12.24-.1-.2Z"/><path class="cls-2" d="M101.72,59l-.8-.71.22-.43.13.24Z"/><path class="cls-2" d="M155.06,168.09a1.39,1.39,0,0,0,1.24-2l-27.78-54.5v0L115.63,86.32a43.82,43.82,0,0,1-34,47.74l17.18,33.7a.65.65,0,0,0,.56.32h55.74ZM128.51,111.6l.51,1a.66.66,0,0,0-.5-.23.63.63,0,0,0-.58.37Zm-28.6,56.14"/><path class="cls-2" d="M129,112.59a.66.66,0,0,0-.5-.23.63.63,0,0,0-.58.37l.57-1.13Z"/><path class="cls-3" d="M28.76,85A43.79,43.79,0,0,0,60.6,133.55a2.13,2.13,0,0,1,1.58,2V166a2.12,2.12,0,0,1-2.12,2.12H2.12A2.12,2.12,0,0,1,0,166V2.12A2.12,2.12,0,0,1,2.12,0H60.06a2.12,2.12,0,0,1,2.12,2.12V47A2.13,2.13,0,0,1,60.61,49,43.81,43.81,0,0,0,28.76,85Z"/><path class="cls-2" d="M99.73,0h-.41a.66.66,0,0,0-.56.33L74.68,47.57c1.23.07,2.45.2,3.69.37a44.19,44.19,0,0,1,5.07,1h0a43.53,43.53,0,0,1,17.48,9.33l.22-.43.13.24.45.9h0a43.85,43.85,0,0,1,13.36,23.81l13.42-26.34v0L156.82,1a.69.69,0,0,0-.61-1Zm28.78,56.49-.57-1.13a.66.66,0,0,0,1.08.14Z"/><path class="cls-2" d="M129,55.5l-.51,1-.57-1.13a.66.66,0,0,0,1.08.14Z"/><path class="cls-2" d="M101.72,59l-.8-.71.22-.43.13.24Z"/><path class="cls-2" d="M129,55.5l-.51,1-.57-1.13a.66.66,0,0,0,1.08.14Z"/><path class="cls-4" d="M78.78,128.09l-.12.24-.1-.2Z"/><path class="cls-2" d="M97.91,64.23a37.22,37.22,0,0,0-20.46-10,38.67,38.67,0,0,0-5-.39,37.4,37.4,0,0,0-10.27,73.45,38.35,38.35,0,0,0,4.58,1,37.57,37.57,0,0,0,11.8-.17l.22,0a37.41,37.41,0,0,0,30.34-31.46c.12-.88.22-1.76.28-2.64A37.31,37.31,0,0,0,97.91,64.23Zm.93,30.92a27,27,0,0,1-13.61,19.74,26.72,26.72,0,0,1-11.7,3.37,27.09,27.09,0,0,1-11.35-1.85A27,27,0,0,1,60.73,66.8c.48-.23,1-.43,1.45-.63A26.86,26.86,0,0,1,76,64.56c.71.11,1.42.24,2.12.39a27,27,0,0,1,20.75,30.2Z"/><circle class="cls-5" cx="72.07" cy="91.02" r="18.09"/></svg>