<svg id="Layer_1" data-name="Layer 1" xmlns="http://www.w3.org/2000/svg" viewBox="0 0 136.77 176.8"><defs><style>.cls-1{fill:#fbbc04;}.cls-2{fill:#4182f6;}.cls-3{fill:#0f9d58;}</style></defs><path class="cls-1" d="M68.38,147.8v29C30.87,176.79,0,145.92,0,108.41a68.36,68.36,0,0,1,8.51-33,1.27,1.27,0,0,1,1.77-.5L31.93,87.36A1.29,1.29,0,0,1,32.47,89a42,42,0,0,0,32.42,58.46C66.06,147.62,67.23,147.73,68.38,147.8Z"/><path class="cls-2" d="M135.72,0a1,1,0,0,1,1.05,1.05V108.41c0,.35,0,.7,0,1.06s0,.47,0,.7v.18c0,.75-.06,1.5-.1,2.24,0,.07,0,.14,0,.21,0,.23,0,.47,0,.7l-.06.69v0c-.07.84-.16,1.68-.26,2.51a68.49,68.49,0,0,1-12.77,32.16c-.5.67-1,1.34-1.53,2s-1.16,1.44-1.77,2.15c-.37.42-.74.85-1.12,1.27l-.57.62,0,.06-1.12,1.17,0,0-.57.58-.61.6c-.58.56-1.17,1.12-1.77,1.66a.3.3,0,0,1-.08.08L113,160.22c-.7.6-1.42,1.19-2.14,1.77s-1.32,1-2,1.52a68.34,68.34,0,0,1-32.16,12.77c-.83.1-1.66.19-2.5.26h0l-.69,0-.69.05h-.21c-.75.05-1.49.08-2.24.1h-.89l-1.06,0v-29a42,42,0,0,0,44.05-35.9c.17-1.17.29-2.33.36-3.49A42,42,0,0,0,69.46,64a1,1,0,0,1-1.08-1V1.05a1,1,0,0,1,1.05-1Z"/><path class="cls-2" d="M123.49,148.9a68.49,68.49,0,0,0,12.77-32.16A67.94,67.94,0,0,1,123.49,148.9Z"/><path class="cls-2" d="M136.52,114.23c-.07.84-.16,1.68-.26,2.51C136.36,115.91,136.45,115.07,136.52,114.23Z"/><path class="cls-3" d="M75.71,72.53A33.68,33.68,0,0,0,40.12,92.09a33.76,33.76,0,0,0,25.95,47.19c.77.11,1.55.2,2.31.25a33.72,33.72,0,0,0,35.89-28.8c.11-.78.19-1.55.25-2.32A33.72,33.72,0,0,0,75.71,72.53Zm20.53,35.88c0,.38-.09.76-.14,1.14a25.47,25.47,0,0,1-27.72,21.7c-.37,0-.75-.08-1.13-.14a25.47,25.47,0,1,1,29-22.7Z"/><path class="cls-1" d="M86.55,107.93c0,.16,0,.32-.07.48a15.82,15.82,0,0,1-17.85,12.92l-.25,0a15.83,15.83,0,0,1,0-31.25,16.21,16.21,0,0,1,4.77,0A15.81,15.81,0,0,1,86.55,107.93Z"/></svg>