<svg id="Layer_1" data-name="Layer 1" xmlns="http://www.w3.org/2000/svg" viewBox="0 0 157.75 157.76"><defs><style>.cls-1{fill:#4182f6;}.cls-2{fill:#fbbc04;}.cls-3{fill:#fff;}.cls-4{fill:#0f9d58;}.cls-5{fill:none;}</style></defs><path class="cls-1" d="M44.67,78.88a.57.57,0,0,0,0,.13c0-.05,0-.09,0-.13Zm68.05,4.27a.86.86,0,0,0,0-.24v-.56C112.75,82.62,112.74,82.89,112.72,83.15ZM130.55,81a51.85,51.85,0,0,1-103.7,0H0a78.89,78.89,0,0,0,78.86,76.81h0A78.9,78.9,0,0,0,157.73,81Zm-17.79,2v-.56c0,.27,0,.54,0,.8A.86.86,0,0,0,112.76,82.91Zm0-2v1.4c0-.47,0-.93,0-1.4h0c0-.29,0-.58,0-.87h0c0-.17,0-.35,0-.52V79s0-.07,0-.1h0c0,.12,0,.24,0,.36s0,.24,0,.36v1.34h0Zm0,2.2a.86.86,0,0,0,0-.24v-.56C112.75,82.62,112.74,82.89,112.72,83.15Zm0,0a.86.86,0,0,0,0-.24v-.56C112.75,82.62,112.74,82.89,112.72,83.15Z"/><path class="cls-2" d="M44.67,78.88a.57.57,0,0,0,0,.13c0-.05,0-.09,0-.13v-.22A1.62,1.62,0,0,0,44.67,78.88ZM73.15,47.3l-.17,0h0l-.23,0,.57-.1ZM44.87,76.71c.06-.48.13-1,.21-1.45C45,75.74,44.93,76.23,44.87,76.71ZM85.72,47.59q-.63-.14-1.26-.24c.38.06.76.13,1.13.21l.49.11Zm3,.8-.15,0h0l.42.13Zm2.44.86-.42-.16c.3.11.59.22.88.35Zm18.52,17.63c0-.1-.09-.2-.14-.3.14.3.28.59.41.89C109.89,67.27,109.81,67.07,109.71,66.88ZM93.9,50.47l-1-.48ZM92,49.59l.53.24-.27-.13Zm-4-1.42-.11,0,.36.1ZM87.27,48l.22.06h0Zm25.52,33c0-.29,0-.58,0-.87h0c0-.17,0-.35,0-.52V79s0-.07,0-.1l0-.15c0-.06,0-.12,0-.19a1.09,1.09,0,0,1,0,.18.86.86,0,0,1,0,.16c0,.12,0,.24,0,.36s0,.24,0,.36v1.34h0v1.4c0-.47,0-.93,0-1.4h0Zm-.07,2.21a.86.86,0,0,0,0-.24v-.56C112.75,82.62,112.74,82.89,112.72,83.15Z"/><path class="cls-2" d="M130.55,81a51.85,51.85,0,0,1-103.7,0H44.6a34.1,34.1,0,0,0,68.12,2.2.86.86,0,0,0,0-.24v-.56c0-.47,0-.93,0-1.4Z"/><path class="cls-3" d="M44.68,78.66v.22s0,.08,0,.13a.57.57,0,0,1,0-.13A1.62,1.62,0,0,1,44.68,78.66Z"/><path class="cls-3" d="M44.87,76.71c.06-.48.13-1,.21-1.45C45,75.74,44.93,76.23,44.87,76.71Z"/><path class="cls-3" d="M112.51,76.63c-.05-.41-.11-.81-.18-1.21C112.4,75.82,112.46,76.22,112.51,76.63Z"/><path class="cls-3" d="M112,73.63c0-.23-.11-.46-.17-.69l0,0Z"/><path class="cls-3" d="M87.27,48l.26.07h0Z"/><path class="cls-3" d="M111.67,72.35c-.06-.26-.14-.52-.21-.78v.05l.09.3C111.6,72.07,111.63,72.21,111.67,72.35Z"/><path class="cls-3" d="M88.28,48.24h0L87.53,48l.5.14Z"/><path class="cls-3" d="M86.08,47.67l-.49-.11c-.37-.08-.75-.15-1.13-.21q.63.1,1.26.24Z"/><path class="cls-3" d="M112.18,74.57l-.06-.29Z"/><path class="cls-3" d="M112.33,75.42l-.15-.85C112.23,74.85,112.29,75.13,112.33,75.42Z"/><path class="cls-3" d="M84.15,47.29l.15,0Z"/><path class="cls-3" d="M81.81,47l.42,0Z"/><path class="cls-3" d="M80.44,46.9c.46,0,.92.05,1.37.1C81.36,47,80.9,46.92,80.44,46.9Z"/><path class="cls-3" d="M83.09,47.14l1.06.15Z"/><path class="cls-3" d="M82.23,47l.86.1Z"/><path class="cls-3" d="M112.74,79.24c0-.12,0-.24,0-.36a.86.86,0,0,0,0-.16,1.09,1.09,0,0,0,0-.18c0,.07,0,.13,0,.19v.51Z"/><path class="cls-3" d="M112.79,80.94h0c0,.47,0,.93,0,1.4V81h0V79.6c0-.12,0-.24,0-.36,0,.1,0,.2,0,.3s0,.35,0,.52h0C112.78,80.36,112.79,80.65,112.79,80.94Z"/><path class="cls-4" d="M157.75,2.45V78.88c0,.69,0,1.38,0,2.07H130.55c0-.29,0-.58,0-.87s0-.31,0-.47,0-.48,0-.72c0-.87-.09-1.73-.17-2.58,0-.43-.08-.85-.13-1.28-.15-1.31-.35-2.61-.59-3.89,0-.21-.09-.43-.13-.64l-.15-.72-.12-.54-.15-.62c0-.21-.1-.42-.16-.62l-.15-.58c-.12-.45-.25-.9-.38-1.34,0-.18-.11-.36-.17-.54s-.12-.41-.19-.61-.13-.41-.2-.6l-.21-.61-.21-.59c-.07-.21-.15-.41-.23-.61s-.14-.39-.22-.58l-.24-.58-.24-.59c-.41-1-.85-1.92-1.31-2.86l-.28-.54c-.48-.94-1-1.86-1.52-2.77-.1-.18-.21-.35-.32-.53q-1.14-1.87-2.43-3.64l-.37-.5q-.55-.75-1.14-1.47c-.13-.17-.26-.33-.4-.49-.35-.43-.72-.86-1.09-1.28l-.41-.45Q115.69,44.54,114,43l-.43-.4c-.78-.7-1.58-1.39-2.4-2.05l-.4-.32c-.35-.28-.71-.56-1.07-.82l-.5-.37-1-.73-.52-.35a51.67,51.67,0,0,0-8.12-4.49L99,33.22l-.26-.11-.43-.18c-1.2-.49-2.41-.93-3.64-1.33l-.55-.17c-.52-.17-1-.32-1.57-.47L92,30.81l-1.34-.34-.49-.11L88.51,30,88,29.93l-.37-.06L87,29.76l-1.73-.25-.5-.06c-.73-.09-1.47-.16-2.21-.21l-.64,0-.68,0-.62,0H80.4l-1,0H77.94l-1,0h-.25l-.62,0-.67,0-.65,0c-.75.05-1.5.13-2.24.21l-.47.06-.61.08-1.12.17-.63.11-.39.07-.46.08c-1.18.23-2.34.49-3.49.8l-.5.13-.4.12-.6.17h0l-.6.19-.61.19-.6.2-.6.21c-.8.28-1.6.58-2.37.9l-.56.23a49.79,49.79,0,0,0-6.19,3.12l-.54.32c-.71.43-1.42.89-2.1,1.35l-.52.35-1,.73-.5.37c-.33.24-.66.5-1,.75l-.49.39c-.82.66-1.62,1.35-2.4,2.05l-.42.4c-1.11,1-2.18,2.11-3.19,3.24l-.41.45c-.37.42-.74.85-1.09,1.28-.14.16-.27.32-.4.49q-.59.72-1.14,1.47l-.37.5q-1.29,1.77-2.43,3.64l-.32.53c-.53.91-1,1.83-1.52,2.77-.09.18-.19.36-.27.54-.47.94-.91,1.89-1.32,2.86l-.24.59-.24.58c-.07.19-.15.38-.22.58s-.15.4-.23.61l-.21.59-.21.61c-.07.19-.14.4-.2.6s-.13.4-.19.61-.12.36-.17.54c-.13.44-.26.89-.38,1.34l-.15.58c-.06.2-.11.41-.16.62l-.15.62-.12.54-.15.72c0,.21-.09.43-.13.64-.24,1.28-.44,2.58-.59,3.89-.05.43-.09.85-.13,1.28-.08.85-.13,1.71-.16,2.58l0,.72c0,.16,0,.31,0,.47v.87H0c0-.69,0-1.38,0-2.07V2.45A2.45,2.45,0,0,1,2.45,0H155.3A2.45,2.45,0,0,1,157.75,2.45Z"/><path class="cls-3" d="M44.68,78.66v.22s0,.08,0,.13a.57.57,0,0,1,0-.13A1.62,1.62,0,0,1,44.68,78.66Z"/><path class="cls-3" d="M44.87,76.71c.06-.48.13-1,.21-1.45C45,75.74,44.93,76.23,44.87,76.71Z"/><path class="cls-3" d="M87.27,48l.26.07h0Z"/><path class="cls-3" d="M88.28,48.24h0L87.53,48l.5.14Z"/><path class="cls-3" d="M111.67,72.35c-.06-.26-.14-.52-.21-.78v.05l.09.3C111.6,72.07,111.63,72.21,111.67,72.35Z"/><path class="cls-3" d="M112,73.63c0-.23-.11-.46-.17-.69l0,0Z"/><path class="cls-3" d="M86.08,47.67l-.49-.11c-.37-.08-.75-.15-1.13-.21q.63.1,1.26.24Z"/><path class="cls-3" d="M112.76,80.94V79.6c0-.12,0-.24,0-.36s0-.24,0-.36a.86.86,0,0,0,0-.16,1.09,1.09,0,0,0,0-.18c0,.07,0,.13,0,.19l0,.15s0,.06,0,.1v.56c0,.17,0,.35,0,.52h0c0,.29,0,.58,0,.87Z"/><path class="cls-4" d="M112.76,79.6v1.34H44.6c0-.29,0-.58,0-.87h0c0-.28,0-.57,0-.86V79c0-.05,0-.09,0-.13v-.22l0-.32c0-.29,0-.58.07-.86l.09-.77c.06-.48.13-1,.21-1.45h0A34.37,34.37,0,0,1,74.55,47.1l.74-.08.77-.07L77,46.9l.86,0h1.76l.87,0c.46,0,.91.05,1.37.1l.37,0,.48.06.43,0,.42.06.4.06.24,0,.15,0,.16,0c.38.06.76.13,1.13.21l.13,0,.36.08h0l.88.21.3.08.22.06h0l.5.14.25.07.47.15c.46.14.92.29,1.37.46l.6.22.47.18.46.19.35.15q.27.1.54.24l.37.16c.6.28,1.2.58,1.77.89l.57.31.5.29.08,0,.52.32.48.3.62.4.39.27c.39.26.77.53,1.15.82.68.51,1.34,1,2,1.6l.48.42c.16.14.32.28.47.43.31.29.62.59.91.89l.45.45.43.47c.15.15.29.31.43.47l.42.48c.42.48.82,1,1.2,1.48l.39.51c.12.17.25.34.37.52.37.52.73,1,1.06,1.59.18.27.34.54.5.82q.49.83.93,1.68l.43.86c.37.77.71,1.55,1,2.35.08.2.16.41.23.61s.15.41.22.61l.21.62c.05.18.11.35.16.53a1.72,1.72,0,0,1,.07.21c0,.12.07.26.11.39l.09.3c0,.15.07.29.11.43s0,0,0,.06l.15.58.15.64c.08.36.15.72.22,1.08a2.33,2.33,0,0,0,.05.28c0,.15,0,.29.07.43s.06.4.1.6,0,.4.08.61.07.56.1.85,0,.57.08.86c0,.07,0,.13,0,.2a1.09,1.09,0,0,1,0,.18.86.86,0,0,1,0,.16c0,.12,0,.24,0,.36S112.75,79.48,112.76,79.6Z"/><path class="cls-4" d="M112.79,80.94h0V79.6c0,.15,0,.31,0,.46h0C112.78,80.36,112.79,80.65,112.79,80.94Z"/><path class="cls-5" d="M112.76,79v.62c0-.12,0-.24,0-.36s0-.24,0-.36a.86.86,0,0,0,0-.16h0l0,.15S112.76,78.94,112.76,79Z"/><rect class="cls-5" x="45.2" y="80.94" width="67.56" height="0.01"/><path class="cls-5" d="M112.76,82.35v.56a.86.86,0,0,1,0,.24C112.74,82.89,112.75,82.62,112.76,82.35Z"/></svg>