<svg id="Layer_1" data-name="Layer 1" xmlns="http://www.w3.org/2000/svg" xmlns:xlink="http://www.w3.org/1999/xlink" viewBox="0 0 162 166.48"><defs><style>.cls-1,.cls-3,.cls-4{fill:none;}.cls-2{clip-path:url(#clip-path);}.cls-3{stroke:#fff;stroke-miterlimit:10;stroke-width:0.54px;}.cls-4{stroke:#e0e0e0;stroke-width:0.52px;}.cls-5{fill:#fbbc04;}.cls-6{fill:#0f9d58;}.cls-7{fill:#4182f6;}.cls-8{fill:#e0e0e0;}</style><clipPath id="clip-path"><rect class="cls-1" x="542.73" y="19.96" width="577.75" height="366.87"/></clipPath></defs><g class="cls-2"><line class="cls-3" x1="1661.74" y1="-502.31" x2="152.48" y2="362.63"/><line class="cls-3" x1="1646.52" y1="-528.07" x2="137.26" y2="336.87"/><line class="cls-3" x1="1631.29" y1="-553.84" x2="122.03" y2="311.1"/><line class="cls-3" x1="1616.07" y1="-579.6" x2="106.81" y2="285.34"/><line class="cls-3" x1="1600.85" y1="-605.36" x2="91.58" y2="259.58"/><line class="cls-3" x1="1585.62" y1="-631.13" x2="76.36" y2="233.82"/><line class="cls-3" x1="1570.4" y1="-656.89" x2="61.14" y2="208.05"/><line class="cls-3" x1="1555.17" y1="-682.65" x2="45.91" y2="182.29"/><line class="cls-4" x1="1661.74" y1="-502.31" x2="152.48" y2="362.63"/><line class="cls-4" x1="1646.52" y1="-528.07" x2="137.26" y2="336.87"/><line class="cls-4" x1="1631.29" y1="-553.84" x2="122.03" y2="311.1"/><line class="cls-4" x1="1616.07" y1="-579.6" x2="106.81" y2="285.34"/><line class="cls-4" x1="1600.85" y1="-605.36" x2="91.58" y2="259.58"/><line class="cls-4" x1="1585.62" y1="-631.13" x2="76.36" y2="233.82"/><line class="cls-4" x1="1570.4" y1="-656.89" x2="61.14" y2="208.05"/><line class="cls-4" x1="1555.17" y1="-682.65" x2="45.91" y2="182.29"/><line class="cls-3" x1="160.75" y1="164.66" x2="1664.45" y2="1039.24"/><line class="cls-4" x1="160.75" y1="164.66" x2="1664.45" y2="1039.24"/></g><path class="cls-5" d="M133.7,166.47h0Z"/><path class="cls-5" d="M133.68,166.47H56.62V110.41h0v-.54h76.6a28.31,28.31,0,0,0-27.83,28.3c0,.73,0,1.46.09,2.18,0,.47.08,1,.14,1.42.1.76.23,1.51.38,2.25,0,.15.06.29.1.44s.13.59.21.88l.12.43a3.37,3.37,0,0,0,.1.34c.11.38.23.76.35,1.13.22.66.47,1.31.74,1.94.18.43.37.84.56,1.25h0a26.39,26.39,0,0,0,1.3,2.4c.24.39.48.77.73,1.15.13.19.26.38.4.56q.39.55.81,1.08h0l.54.66c.36.44.74.86,1.13,1.27.19.21.38.41.59.61.48.48,1,.94,1.49,1.39.68.59,1.39,1.15,2.12,1.67s1.52,1,2.31,1.48l.9.49c.3.16.6.32.91.46l.06,0,.45.2c.15.08.3.14.45.21l.93.38c.26.11.53.21.8.3a5.17,5.17,0,0,0,.51.18,27.65,27.65,0,0,0,5.62,1.28c.19,0,.38.05.57.06l.71.07C132.23,166.44,133,166.47,133.68,166.47Z"/><path class="cls-6" d="M56.62,110.41h0L54,113l-3.2,3.2L3.65,163.4A12.35,12.35,0,0,1,0,155.46V110.41Z"/><rect class="cls-5" x="54.02" y="109.87" width="2.6" height="0.54"/><polygon class="cls-5" points="56.62 110.41 56.62 116.21 56.62 110.41 56.62 110.41 56.62 110.41"/><path class="cls-7" d="M56.62,108v1.85H54v.54H0V108L0,8.08A8.07,8.07,0,0,1,8.07,0h41.6a6.92,6.92,0,0,1,6.92,6.92Z"/><rect class="cls-7" x="54.02" y="109.87" width="2.6" height="0.54"/><path class="cls-6" d="M113,76.06a28.3,28.3,0,1,1,0-56.6Z"/><path class="cls-6" d="M116.09,22.72a25.23,25.23,0,0,1,0,50.08V22.72ZM113,19.46v56.6a28.3,28.3,0,0,0,0-56.6Z"/><path class="cls-7" d="M161.05,138.16a28.39,28.39,0,0,1-8.21,20,27.9,27.9,0,0,1-19,8.27h-.15c-.73,0-1.45,0-2.16-.08l-.71-.07c-.19,0-.38,0-.57-.06a27.65,27.65,0,0,1-5.62-1.28,5.17,5.17,0,0,1-.51-.18c-.27-.09-.54-.19-.8-.3-.62-.24-1.23-.51-1.83-.79l-.06,0c-.62-.29-1.22-.61-1.81-.95-.79-.45-1.56-.95-2.31-1.48s-1.44-1.08-2.12-1.67c-.52-.45-1-.91-1.49-1.39a28.67,28.67,0,0,1-2.26-2.54h0q-.42-.52-.81-1.08c-.14-.18-.27-.37-.4-.56-.25-.38-.49-.76-.73-1.15a26.39,26.39,0,0,1-1.3-2.4h0c-.19-.41-.38-.82-.56-1.25-.27-.63-.52-1.28-.74-1.94-.12-.37-.24-.75-.35-1.13a3.37,3.37,0,0,1-.1-.34c-.16-.57-.3-1.16-.43-1.75-.15-.74-.28-1.49-.38-2.25-.06-.47-.11-1-.14-1.42-.06-.72-.09-1.45-.09-2.18a27.83,27.83,0,1,1,55.66,0Z"/><path class="cls-7" d="M162,138.17a28.3,28.3,0,0,1-28.17,28.3,27.9,27.9,0,0,0,19-8.27,28.37,28.37,0,0,0-19.62-48.33h.48A28.3,28.3,0,0,1,162,138.17Z"/><path class="cls-1" d="M7.84,104.65v50.18q0-.45,0-.9V104.65Z"/><rect class="cls-1" x="54.02" y="109.87" width="2.6" height="0.54"/><polygon class="cls-6" points="56.62 110.41 56.62 110.41 56.62 110.41 56.62 110.41"/><polygon class="cls-8" points="56.62 110.41 56.62 116.21 56.62 110.41 56.62 110.41"/></svg>