<svg id="Layer_1" data-name="Layer 1" xmlns="http://www.w3.org/2000/svg" xmlns:xlink="http://www.w3.org/1999/xlink" viewBox="0 0 174.23 159.97"><defs><style>.cls-1,.cls-3,.cls-4{fill:none;}.cls-2{clip-path:url(#clip-path);}.cls-3{stroke:#fff;stroke-miterlimit:10;stroke-width:0.54px;}.cls-4{stroke:#e0e0e0;stroke-width:0.52px;}.cls-5{fill:#0f9d58;}.cls-6{fill:#fbbc04;}.cls-7{fill:#4182f6;}</style><clipPath id="clip-path"><rect class="cls-1" x="548.84" y="-526.28" width="577.75" height="366.87"/></clipPath></defs><g class="cls-2"><line class="cls-3" x1="43.76" y1="-176.26" x2="1547.45" y2="698.33"/><line class="cls-3" x1="59.15" y1="-201.93" x2="1562.84" y2="672.66"/><line class="cls-3" x1="74.54" y1="-227.59" x2="1578.23" y2="647"/><line class="cls-3" x1="89.93" y1="-253.26" x2="1593.62" y2="621.33"/><line class="cls-3" x1="105.31" y1="-278.92" x2="1609.01" y2="595.67"/><line class="cls-3" x1="120.7" y1="-304.59" x2="1624.39" y2="570"/><line class="cls-3" x1="136.09" y1="-330.25" x2="1639.78" y2="544.34"/><line class="cls-3" x1="151.48" y1="-355.92" x2="1655.17" y2="518.67"/><line class="cls-3" x1="166.87" y1="-381.58" x2="1670.56" y2="493.01"/><line class="cls-4" x1="43.76" y1="-176.26" x2="1547.45" y2="698.33"/><line class="cls-4" x1="59.15" y1="-201.93" x2="1562.84" y2="672.66"/><line class="cls-4" x1="74.54" y1="-227.59" x2="1578.23" y2="647"/><line class="cls-4" x1="89.93" y1="-253.26" x2="1593.62" y2="621.33"/><line class="cls-4" x1="105.31" y1="-278.92" x2="1609.01" y2="595.67"/><line class="cls-4" x1="120.7" y1="-304.59" x2="1624.39" y2="570"/><line class="cls-4" x1="136.09" y1="-330.25" x2="1639.78" y2="544.34"/><line class="cls-4" x1="151.48" y1="-355.92" x2="1655.17" y2="518.67"/><line class="cls-4" x1="166.87" y1="-381.58" x2="1670.56" y2="493.01"/></g><path class="cls-5" d="M117.12,29.59V52.11H102.43c.36-.26.71-.52,1-.8a25.18,25.18,0,0,0,3.35-3s0-.06,0-.1-.07,0-.07,0A24.47,24.47,0,0,0,113.09,32V30.74h0a26.25,26.25,0,0,0-7.46-18.68A22.31,22.31,0,0,0,103,9.56a26.31,26.31,0,0,0-4.35-2.65l-.06,0c-.27-.14-.59-.26-.87-.38s-.68-.25-1-.37a27,27,0,0,0-9.88-1.83,26.63,26.63,0,0,0-7,.94c-.69-.1-1.39-.18-2.1-.23S76.36,5,75.67,5V6.78a26.4,26.4,0,0,0-5.19,44.53c.08.07.07.13.15.19.26.21.53.41.8.61H56.06V29.59C56.06,15.17,66.6,3.43,80.26.64H98.74c-.17,0-.17.11-.17.12v1.3A29.27,29.27,0,0,1,117.12,29.59Z"/><path class="cls-5" d="M80.26.64c-13.66,2.79-24.2,14.53-24.2,29V52.11H26A25.94,25.94,0,0,1,0,26.18,25.43,25.43,0,0,1,7.6,8,25.69,25.69,0,0,1,26,.64Z"/><path class="cls-5" d="M78.54,3.72s0,.11-.06.13.17,0,.17,0c-.32.37-.63.73-.93,1.12s-.65.85-1,1.28S76,7.43,75.67,8V6.78a26.4,26.4,0,0,0-5.19,44.53c.08.07.07.13.15.19.26.21.53.41.8.61H56.06V29.59C56.06,15.17,66.6,3.43,80.26.64h1.46A35.79,35.79,0,0,0,78.54,3.72Z"/><path class="cls-6" d="M174.23,26.57a25.39,25.39,0,0,1-7.6,18.15,25.65,25.65,0,0,1-18.34,7.39H117.12V29.59A29.29,29.29,0,0,0,98.57,2.05V.76s0-.12.17-.12h49.55A25.93,25.93,0,0,1,174.23,26.57Z"/><path class="cls-5" d="M117.12,29.59V52.11H102.43c.36-.26.71-.52,1-.8a25.18,25.18,0,0,0,3.35-3s0-.06,0-.1-.07,0-.07,0A24.47,24.47,0,0,0,113.09,32V30.74h0a26.25,26.25,0,0,0-7.46-18.68A22.31,22.31,0,0,0,103,9.56a26.31,26.31,0,0,0-4.35-2.65l-.06,0V2.06A29.27,29.27,0,0,1,117.12,29.59Z"/><path class="cls-7" d="M98.57,2.06A28.34,28.34,0,0,0,93.79.64,30.43,30.43,0,0,0,87.55,0h-1a30.94,30.94,0,0,0-6.27.64c-13.66,2.79-24.2,14.53-24.2,29V150.41c0,5.27,4.75,9.56,10,9.56h42.65c4.87,0,8.39-4,8.39-8.83V29.59A29.27,29.27,0,0,0,98.57,2.06ZM86.85,57.14a25.09,25.09,0,0,1-15.42-5c-.27-.2-.54-.4-.8-.61-.08-.06-.07-.12-.15-.19A26.4,26.4,0,0,1,75.67,6.78V8c.34-.59.7-1.16,1.09-1.72a26.26,26.26,0,0,1,3.06-1,26.63,26.63,0,0,1,7-.94,27,27,0,0,1,9.88,1.83c.29.12.68.24,1,.37s.6.24.87.38l.06,0A26.31,26.31,0,0,1,103,9.56a22.31,22.31,0,0,1,2.65,2.49,26.25,26.25,0,0,1,7.46,18.68h0V32a24.47,24.47,0,0,1-6.32,16.16s.07,0,.07,0,0,.07,0,.1a25.18,25.18,0,0,1-3.35,3c-.34.28-.69.54-1,.8A27.15,27.15,0,0,1,86.85,57.14Z"/><path class="cls-6" d="M86.85,4.31V57.14a25.09,25.09,0,0,1-15.42-5c-.27-.2-.54-.4-.8-.61-.08-.06-.07-.12-.15-.19A26.4,26.4,0,0,1,75.67,6.78V8c.34-.59.7-1.16,1.09-1.72a26.26,26.26,0,0,1,3.06-1A26.63,26.63,0,0,1,86.85,4.31Z"/><path class="cls-6" d="M76.76,6.3C76.37,6.86,76,7.43,75.67,8V6.78C76,6.62,76.39,6.45,76.76,6.3Z"/></svg>